# MagicaVoxel @ Ephtracy

# group
o 

# material
mtllib aldeano.mtl
usemtl palette

# normals
vn -1 0 0
vn 1 0 0
vn 0 0 1
vn 0 0 -1
vn 0 -1 0
vn 0 1 0

# texcoords
vt 0.908203 0.5
vt 0.912109 0.5
vt 0.916016 0.5
vt 0.919922 0.5
vt 0.923828 0.5
vt 0.927734 0.5

# verts
v 0.6 2 -0.6
v 0.6 2 -3.4
v 0.6 2.3 -0.6
v 0.6 2.3 -3.4
v 0.9 3.6 -0.9
v 0.9 3.6 -3.1
v 0.9 4.5 -0.9
v 0.9 4.5 -3.1
v 1 3 -1
v 1 3 -3
v 1 3.6 -1
v 1 3.6 -3
v 1.2 2.6 -1.2
v 1.2 2.6 -2.8
v 1.2 3 -1.2
v 1.2 3 -2.8
v 1.2 4.7 -1.2
v 1.2 4.7 -2.8
v 1.2 5.7 -1.2
v 1.2 5.7 -2.8
v 1.6 4 -0.1
v 1.6 4 -0.8
v 1.6 4 -3.2
v 1.6 4 -3.9
v 1.6 4.6 -0.1
v 1.6 4.6 -0.8
v 1.6 4.6 -3.2
v 1.6 4.6 -3.9
v 3.7 2.5 -3.4
v 3.7 2.5 -3.6
v 3.7 4 -3.4
v 3.7 4 -3.6
v 3.7 4.6 -3.4
v 3.7 4.6 -3.6
v 3.7 5 -3
v 3.7 5 -3.4
v 3.7 5 -3.6
v 3.7 5 -4
v 3.7 5.2 -3.2
v 3.7 5.2 -3.8
v 3.7 5.7 -3
v 3.7 5.7 -3.2
v 3.7 5.7 -3.8
v 3.7 5.7 -4
v 2.8 2.6 -1.2
v 2.8 2.6 -2.8
v 2.8 3 -1.2
v 2.8 3 -2.8
v 2.8 4.7 -1.2
v 2.8 4.7 -2.8
v 2.8 4.9 -1.5
v 2.8 4.9 -2.5
v 2.8 5 -1.5
v 2.8 5 -2.5
v 2.8 5.1 -1.9
v 2.8 5.1 -2.1
v 2.8 5.3 -1.5
v 2.8 5.3 -1.7
v 2.8 5.3 -1.9
v 2.8 5.3 -2.1
v 2.8 5.3 -2.3
v 2.8 5.3 -2.5
v 2.8 5.4 -1.4
v 2.8 5.4 -1.5
v 2.8 5.4 -1.7
v 2.8 5.4 -1.8
v 2.8 5.4 -2.2
v 2.8 5.4 -2.3
v 2.8 5.4 -2.5
v 2.8 5.4 -2.6
v 2.8 5.5 -1.4
v 2.8 5.5 -1.8
v 2.8 5.5 -2.2
v 2.8 5.5 -2.6
v 2.8 5.7 -1.2
v 2.8 5.7 -2.8
v 2.9 3 -1
v 2.9 3 -3
v 2.9 3.6 -1
v 2.9 3.6 -3
v 3 3.6 -0.9
v 3 3.6 -3.1
v 3 4.5 -0.9
v 3 4.5 -3.1
v 3.2 5.1 -1.9
v 3.2 5.1 -2.1
v 3.2 5.3 -1.9
v 3.2 5.3 -2.1
v 3.4 2 -0.6
v 3.4 2 -3.4
v 3.4 2.3 -0.6
v 3.4 2.3 -3.4
v 3.7 4 -0.3
v 3.7 4 -0.8
v 3.7 4 -3.2
v 3.7 4 -3.4
v 3.7 4 -3.6
v 3.7 4 -3.7
v 3.7 4.4 -0.6
v 3.7 4.4 -0.8
v 3.7 4.4 -3.2
v 3.7 4.4 -3.4
v 3.7 4.6 -0.3
v 3.7 4.6 -0.6
v 3.7 4.6 -3.6
v 3.7 4.6 -3.7
v 3.9 2.5 -3.4
v 3.9 2.5 -3.6
v 3.9 4.4 -0.6
v 3.9 4.4 -0.8
v 3.9 4.4 -3.2
v 3.9 4.4 -3.4
v 3.9 4.6 -0.6
v 3.9 4.6 -0.8
v 3.9 4.6 -3.2
v 3.9 4.6 -3.4
v 3.9 5 -3
v 3.9 5 -3.4
v 3.9 5 -3.6
v 3.9 5 -4
v 3.9 5.2 -3.2
v 3.9 5.2 -3.8
v 3.9 5.7 -3
v 3.9 5.7 -3.2
v 3.9 5.7 -3.8
v 3.9 5.7 -4
v 4 4 -0.1
v 4 4 -0.3
v 4 4 -3.7
v 4 4 -3.9
v 4 4.6 -0.1
v 4 4.6 -0.3
v 4 4.6 -3.7
v 4 4.6 -3.9
v 1.6 4 -0.1
v 1.6 4.6 -0.1
v 4 4 -0.1
v 4 4.6 -0.1
v 0.6 2 -0.6
v 0.6 2.3 -0.6
v 3.4 2 -0.6
v 3.4 2.3 -0.6
v 3.7 4.4 -0.6
v 3.7 4.6 -0.6
v 3.9 4.4 -0.6
v 3.9 4.6 -0.6
v 0.9 3.6 -0.9
v 0.9 4.5 -0.9
v 1.1 3.8 -0.9
v 1.1 4.5 -0.9
v 2.4 3.8 -0.9
v 2.4 4.5 -0.9
v 3 3.6 -0.9
v 3 4.5 -0.9
v 1 3 -1
v 1 3.6 -1
v 2.9 3 -1
v 2.9 3.6 -1
v 1.2 2.6 -1.2
v 1.2 3 -1.2
v 1.2 4.7 -1.2
v 1.2 5.7 -1.2
v 2.8 2.6 -1.2
v 2.8 3 -1.2
v 2.8 4.7 -1.2
v 2.8 5.7 -1.2
v 2.8 5.1 -1.9
v 2.8 5.3 -1.9
v 3.2 5.1 -1.9
v 3.2 5.3 -1.9
v 3.7 5 -3
v 3.7 5.7 -3
v 3.9 5 -3
v 3.9 5.7 -3
v 1.6 4 -3.2
v 1.6 4.6 -3.2
v 3.7 4 -3.2
v 3.7 4.4 -3.2
v 3.9 4.4 -3.2
v 3.9 4.6 -3.2
v 3.7 2.5 -3.4
v 3.7 4 -3.4
v 3.7 4.4 -3.4
v 3.7 4.6 -3.4
v 3.7 5 -3.4
v 3.9 2.5 -3.4
v 3.9 4.4 -3.4
v 3.9 4.6 -3.4
v 3.9 5 -3.4
v 3.7 4 -3.7
v 3.7 4.6 -3.7
v 4 4 -3.7
v 4 4.6 -3.7
v 3.7 5.2 -3.8
v 3.7 5.7 -3.8
v 3.9 5.2 -3.8
v 3.9 5.7 -3.8
v 3.7 4 -0.3
v 3.7 4.6 -0.3
v 4 4 -0.3
v 4 4.6 -0.3
v 1.6 4 -0.8
v 1.6 4.6 -0.8
v 3.7 4 -0.8
v 3.7 4.4 -0.8
v 3.9 4.4 -0.8
v 3.9 4.6 -0.8
v 2.8 5.1 -2.1
v 2.8 5.3 -2.1
v 3.2 5.1 -2.1
v 3.2 5.3 -2.1
v 1.2 2.6 -2.8
v 1.2 3 -2.8
v 1.2 4.7 -2.8
v 1.2 5.7 -2.8
v 2.8 2.6 -2.8
v 2.8 3 -2.8
v 2.8 4.7 -2.8
v 2.8 5.7 -2.8
v 1 3 -3
v 1 3.6 -3
v 2.9 3 -3
v 2.9 3.6 -3
v 0.9 3.6 -3.1
v 0.9 4.5 -3.1
v 1.1 3.8 -3.1
v 1.1 4.5 -3.1
v 2.4 3.8 -3.1
v 2.4 4.5 -3.1
v 3 3.6 -3.1
v 3 4.5 -3.1
v 3.7 5.2 -3.2
v 3.7 5.7 -3.2
v 3.9 5.2 -3.2
v 3.9 5.7 -3.2
v 0.6 2 -3.4
v 0.6 2.3 -3.4
v 3.4 2 -3.4
v 3.4 2.3 -3.4
v 3.7 2.5 -3.6
v 3.7 4 -3.6
v 3.7 4.6 -3.6
v 3.7 5 -3.6
v 3.9 2.5 -3.6
v 3.9 5 -3.6
v 1.6 4 -3.9
v 1.6 4.6 -3.9
v 4 4 -3.9
v 4 4.6 -3.9
v 3.7 5 -4
v 3.7 5.7 -4
v 3.9 5 -4
v 3.9 5.7 -4
v 0.6 2 -0.6
v 3.4 2 -0.6
v 0.6 2 -3.4
v 3.4 2 -3.4
v 3.7 2.5 -3.4
v 3.9 2.5 -3.4
v 3.7 2.5 -3.6
v 3.9 2.5 -3.6
v 1.2 2.6 -1.2
v 2.8 2.6 -1.2
v 1.2 2.6 -2.8
v 2.8 2.6 -2.8
v 1 3 -1
v 2.9 3 -1
v 1.2 3 -1.2
v 2.8 3 -1.2
v 1.2 3 -2.8
v 2.8 3 -2.8
v 1 3 -3
v 2.9 3 -3
v 0.9 3.6 -0.9
v 3 3.6 -0.9
v 1 3.6 -1
v 2.9 3.6 -1
v 1 3.6 -3
v 2.9 3.6 -3
v 0.9 3.6 -3.1
v 3 3.6 -3.1
v 1.6 4 -0.1
v 4 4 -0.1
v 3.7 4 -0.3
v 4 4 -0.3
v 1.6 4 -0.8
v 3.7 4 -0.8
v 1.6 4 -3.2
v 3.7 4 -3.2
v 3.7 4 -3.4
v 3.7 4 -3.6
v 3.7 4 -3.7
v 4 4 -3.7
v 1.6 4 -3.9
v 4 4 -3.9
v 3.7 4.4 -0.6
v 3.9 4.4 -0.6
v 3.7 4.4 -0.8
v 3.9 4.4 -0.8
v 3.7 4.4 -3.2
v 3.9 4.4 -3.2
v 3.7 4.4 -3.4
v 3.9 4.4 -3.4
v 1.2 4.7 -1.2
v 2.8 4.7 -1.2
v 1.2 4.7 -2.8
v 2.8 4.7 -2.8
v 3.7 5 -3
v 3.9 5 -3
v 3.7 5 -3.4
v 3.9 5 -3.4
v 3.7 5 -3.6
v 3.9 5 -3.6
v 3.7 5 -4
v 3.9 5 -4
v 2.8 5.1 -1.9
v 3.2 5.1 -1.9
v 2.8 5.1 -2.1
v 3.2 5.1 -2.1
v 0.6 2.3 -0.6
v 3.4 2.3 -0.6
v 0.6 2.3 -3.4
v 3.4 2.3 -3.4
v 0.9 4.5 -0.9
v 1.1 4.5 -0.9
v 2.4 4.5 -0.9
v 3 4.5 -0.9
v 1.1 4.5 -1.1
v 2.4 4.5 -1.1
v 1.1 4.5 -2.9
v 2.4 4.5 -2.9
v 0.9 4.5 -3.1
v 1.1 4.5 -3.1
v 2.4 4.5 -3.1
v 3 4.5 -3.1
v 1.6 4.6 -0.1
v 4 4.6 -0.1
v 3.7 4.6 -0.3
v 4 4.6 -0.3
v 3.7 4.6 -0.6
v 3.9 4.6 -0.6
v 1.6 4.6 -0.8
v 3.9 4.6 -0.8
v 1.6 4.6 -3.2
v 3.9 4.6 -3.2
v 3.7 4.6 -3.4
v 3.9 4.6 -3.4
v 3.7 4.6 -3.6
v 3.7 4.6 -3.7
v 4 4.6 -3.7
v 1.6 4.6 -3.9
v 4 4.6 -3.9
v 3.7 5.2 -3.2
v 3.9 5.2 -3.2
v 3.7 5.2 -3.8
v 3.9 5.2 -3.8
v 2.8 5.3 -1.9
v 3.2 5.3 -1.9
v 2.8 5.3 -2.1
v 3.2 5.3 -2.1
v 1.2 5.7 -1.2
v 2.8 5.7 -1.2
v 1.2 5.7 -2.8
v 2.8 5.7 -2.8
v 3.7 5.7 -3
v 3.9 5.7 -3
v 3.7 5.7 -3.2
v 3.9 5.7 -3.2
v 3.7 5.7 -3.8
v 3.9 5.7 -3.8
v 3.7 5.7 -4
v 3.9 5.7 -4

# faces
f 3/6/1 2/6/1 1/6/1
f 4/6/1 2/6/1 3/6/1
f 7/2/1 6/2/1 5/2/1
f 8/2/1 6/2/1 7/2/1
f 11/2/1 10/2/1 9/2/1
f 12/2/1 10/2/1 11/2/1
f 15/3/1 14/3/1 13/3/1
f 16/3/1 14/3/1 15/3/1
f 19/1/1 18/1/1 17/1/1
f 20/1/1 18/1/1 19/1/1
f 25/1/1 22/1/1 21/1/1
f 26/1/1 22/1/1 25/1/1
f 27/1/1 24/1/1 23/1/1
f 28/1/1 24/1/1 27/1/1
f 31/4/1 30/4/1 29/4/1
f 32/4/1 30/4/1 31/4/1
f 36/4/1 34/4/1 33/4/1
f 37/4/1 34/4/1 36/4/1
f 39/5/1 37/5/1 36/5/1
f 39/5/1 38/5/1 37/5/1
f 39/5/1 36/5/1 35/5/1
f 40/5/1 38/5/1 39/5/1
f 41/5/1 39/5/1 35/5/1
f 42/5/1 39/5/1 41/5/1
f 43/5/1 38/5/1 40/5/1
f 44/5/1 38/5/1 43/5/1
f 45/3/2 46/3/2 47/3/2
f 47/3/2 46/3/2 48/3/2
f 49/1/2 50/1/2 51/1/2
f 51/1/2 50/1/2 52/1/2
f 49/1/2 51/1/2 53/1/2
f 51/2/2 52/2/2 53/2/2
f 52/1/2 50/1/2 54/1/2
f 53/2/2 52/2/2 54/2/2
f 53/1/2 54/1/2 55/1/2
f 55/1/2 54/1/2 56/1/2
f 49/1/2 53/1/2 57/1/2
f 53/1/2 55/1/2 57/1/2
f 57/1/2 55/1/2 58/1/2
f 58/1/2 55/1/2 59/1/2
f 56/1/2 54/1/2 60/1/2
f 60/1/2 54/1/2 61/1/2
f 54/1/2 50/1/2 62/1/2
f 61/1/2 54/1/2 62/1/2
f 49/1/2 57/1/2 63/1/2
f 57/2/2 58/2/2 64/2/2
f 63/1/2 57/1/2 64/1/2
f 58/1/2 59/1/2 65/1/2
f 64/2/2 58/2/2 65/2/2
f 60/1/2 61/1/2 65/1/2
f 59/1/2 60/1/2 65/1/2
f 65/1/2 61/1/2 66/1/2
f 66/1/2 61/1/2 67/1/2
f 61/2/2 62/2/2 68/2/2
f 67/1/2 61/1/2 68/1/2
f 62/1/2 50/1/2 69/1/2
f 68/2/2 62/2/2 69/2/2
f 69/1/2 50/1/2 70/1/2
f 63/2/2 64/2/2 71/2/2
f 49/1/2 63/1/2 71/1/2
f 64/2/2 65/2/2 71/2/2
f 65/2/2 66/2/2 71/2/2
f 66/1/2 67/1/2 72/1/2
f 71/2/2 66/2/2 72/2/2
f 67/2/2 68/2/2 73/2/2
f 72/1/2 67/1/2 73/1/2
f 69/2/2 70/2/2 73/2/2
f 68/2/2 69/2/2 73/2/2
f 70/1/2 50/1/2 74/1/2
f 73/2/2 70/2/2 74/2/2
f 72/1/2 73/1/2 75/1/2
f 49/1/2 71/1/2 75/1/2
f 73/1/2 74/1/2 75/1/2
f 71/1/2 72/1/2 75/1/2
f 74/1/2 50/1/2 76/1/2
f 75/1/2 74/1/2 76/1/2
f 77/2/2 78/2/2 79/2/2
f 79/2/2 78/2/2 80/2/2
f 81/2/2 82/2/2 83/2/2
f 83/2/2 82/2/2 84/2/2
f 85/1/2 86/1/2 87/1/2
f 87/1/2 86/1/2 88/1/2
f 89/6/2 90/6/2 91/6/2
f 91/6/2 90/6/2 92/6/2
f 93/1/2 94/1/2 99/1/2
f 99/1/2 94/1/2 100/1/2
f 95/1/2 96/1/2 101/1/2
f 101/1/2 96/1/2 102/1/2
f 93/1/2 99/1/2 103/1/2
f 103/1/2 99/1/2 104/1/2
f 97/1/2 98/1/2 105/1/2
f 105/1/2 98/1/2 106/1/2
f 107/4/2 108/4/2 112/4/2
f 109/1/2 110/1/2 113/1/2
f 113/1/2 110/1/2 114/1/2
f 111/1/2 112/1/2 115/1/2
f 112/4/2 108/4/2 116/4/2
f 115/1/2 112/1/2 116/1/2
f 116/4/2 108/4/2 118/4/2
f 118/4/2 108/4/2 119/4/2
f 117/5/2 118/5/2 121/5/2
f 119/5/2 120/5/2 121/5/2
f 118/5/2 119/5/2 121/5/2
f 121/5/2 120/5/2 122/5/2
f 117/5/2 121/5/2 123/5/2
f 123/5/2 121/5/2 124/5/2
f 122/5/2 120/5/2 125/5/2
f 125/5/2 120/5/2 126/5/2
f 127/1/2 128/1/2 131/1/2
f 131/1/2 128/1/2 132/1/2
f 129/1/2 130/1/2 133/1/2
f 133/1/2 130/1/2 134/1/2
f 137/1/3 136/1/3 135/1/3
f 138/1/3 136/1/3 137/1/3
f 141/6/3 140/6/3 139/6/3
f 142/6/3 140/6/3 141/6/3
f 145/1/3 144/1/3 143/1/3
f 146/1/3 144/1/3 145/1/3
f 149/2/3 148/2/3 147/2/3
f 150/2/3 148/2/3 149/2/3
f 151/2/3 149/2/3 147/2/3
f 151/1/3 150/1/3 149/1/3
f 152/1/3 150/1/3 151/1/3
f 153/2/3 151/2/3 147/2/3
f 153/2/3 152/2/3 151/2/3
f 154/2/3 152/2/3 153/2/3
f 157/2/3 156/2/3 155/2/3
f 158/2/3 156/2/3 157/2/3
f 163/3/3 160/3/3 159/3/3
f 164/3/3 160/3/3 163/3/3
f 165/1/3 162/1/3 161/1/3
f 166/1/3 162/1/3 165/1/3
f 169/1/3 168/1/3 167/1/3
f 170/1/3 168/1/3 169/1/3
f 173/5/3 172/5/3 171/5/3
f 174/5/3 172/5/3 173/5/3
f 177/1/3 176/1/3 175/1/3
f 178/1/3 176/1/3 177/1/3
f 179/1/3 176/1/3 178/1/3
f 180/1/3 176/1/3 179/1/3
f 186/4/3 182/4/3 181/4/3
f 186/4/3 183/4/3 182/4/3
f 187/4/3 183/4/3 186/4/3
f 188/4/3 185/4/3 184/4/3
f 189/4/3 185/4/3 188/4/3
f 192/1/3 191/1/3 190/1/3
f 193/1/3 191/1/3 192/1/3
f 196/5/3 195/5/3 194/5/3
f 197/5/3 195/5/3 196/5/3
f 198/1/4 199/1/4 200/1/4
f 200/1/4 199/1/4 201/1/4
f 202/1/4 203/1/4 204/1/4
f 204/1/4 203/1/4 205/1/4
f 205/1/4 203/1/4 206/1/4
f 206/1/4 203/1/4 207/1/4
f 208/1/4 209/1/4 210/1/4
f 210/1/4 209/1/4 211/1/4
f 212/3/4 213/3/4 216/3/4
f 216/3/4 213/3/4 217/3/4
f 214/1/4 215/1/4 218/1/4
f 218/1/4 215/1/4 219/1/4
f 220/2/4 221/2/4 222/2/4
f 222/2/4 221/2/4 223/2/4
f 224/2/4 225/2/4 226/2/4
f 226/2/4 225/2/4 227/2/4
f 224/2/4 226/2/4 228/2/4
f 226/1/4 227/1/4 228/1/4
f 228/1/4 227/1/4 229/1/4
f 224/2/4 228/2/4 230/2/4
f 228/2/4 229/2/4 230/2/4
f 230/2/4 229/2/4 231/2/4
f 232/5/4 233/5/4 234/5/4
f 234/5/4 233/5/4 235/5/4
f 236/6/4 237/6/4 238/6/4
f 238/6/4 237/6/4 239/6/4
f 240/4/4 241/4/4 244/4/4
f 242/4/4 243/4/4 244/4/4
f 241/4/4 242/4/4 244/4/4
f 244/4/4 243/4/4 245/4/4
f 246/1/4 247/1/4 248/1/4
f 248/1/4 247/1/4 249/1/4
f 250/5/4 251/5/4 252/5/4
f 252/5/4 251/5/4 253/5/4
f 256/6/5 255/6/5 254/6/5
f 257/6/5 255/6/5 256/6/5
f 260/4/5 259/4/5 258/4/5
f 261/4/5 259/4/5 260/4/5
f 264/3/5 263/3/5 262/3/5
f 265/3/5 263/3/5 264/3/5
f 268/2/5 267/2/5 266/2/5
f 269/2/5 267/2/5 268/2/5
f 270/2/5 268/2/5 266/2/5
f 271/2/5 267/2/5 269/2/5
f 272/2/5 270/2/5 266/2/5
f 272/2/5 271/2/5 270/2/5
f 273/2/5 267/2/5 271/2/5
f 273/2/5 271/2/5 272/2/5
f 276/2/5 275/2/5 274/2/5
f 277/2/5 275/2/5 276/2/5
f 278/2/5 276/2/5 274/2/5
f 279/2/5 275/2/5 277/2/5
f 280/2/5 278/2/5 274/2/5
f 280/2/5 279/2/5 278/2/5
f 281/2/5 275/2/5 279/2/5
f 281/2/5 279/2/5 280/2/5
f 284/1/5 283/1/5 282/1/5
f 285/1/5 283/1/5 284/1/5
f 286/1/5 284/1/5 282/1/5
f 287/1/5 284/1/5 286/1/5
f 290/1/5 289/1/5 288/1/5
f 291/1/5 290/1/5 288/1/5
f 292/1/5 291/1/5 288/1/5
f 294/1/5 292/1/5 288/1/5
f 294/1/5 293/1/5 292/1/5
f 295/1/5 293/1/5 294/1/5
f 298/1/5 297/1/5 296/1/5
f 299/1/5 297/1/5 298/1/5
f 302/1/5 301/1/5 300/1/5
f 303/1/5 301/1/5 302/1/5
f 306/1/5 305/1/5 304/1/5
f 307/1/5 305/1/5 306/1/5
f 310/5/5 309/5/5 308/5/5
f 311/5/5 309/5/5 310/5/5
f 314/5/5 313/5/5 312/5/5
f 315/5/5 313/5/5 314/5/5
f 318/1/5 317/1/5 316/1/5
f 319/1/5 317/1/5 318/1/5
f 320/6/6 321/6/6 322/6/6
f 322/6/6 321/6/6 323/6/6
f 324/2/6 325/2/6 328/2/6
f 325/1/6 326/1/6 328/1/6
f 326/2/6 327/2/6 329/2/6
f 328/1/6 326/1/6 329/1/6
f 324/2/6 328/2/6 330/2/6
f 328/2/6 329/2/6 330/2/6
f 329/2/6 327/2/6 331/2/6
f 330/2/6 329/2/6 331/2/6
f 324/2/6 330/2/6 332/2/6
f 330/1/6 331/1/6 333/1/6
f 332/2/6 330/2/6 333/2/6
f 331/2/6 327/2/6 334/2/6
f 333/1/6 331/1/6 334/1/6
f 334/2/6 327/2/6 335/2/6
f 336/1/6 337/1/6 338/1/6
f 338/1/6 337/1/6 339/1/6
f 336/1/6 338/1/6 340/1/6
f 336/1/6 340/1/6 342/1/6
f 340/1/6 341/1/6 342/1/6
f 342/1/6 341/1/6 343/1/6
f 344/1/6 345/1/6 346/1/6
f 346/1/6 345/1/6 347/1/6
f 344/1/6 346/1/6 348/1/6
f 344/1/6 348/1/6 349/1/6
f 344/1/6 349/1/6 351/1/6
f 349/1/6 350/1/6 351/1/6
f 351/1/6 350/1/6 352/1/6
f 353/5/6 354/5/6 355/5/6
f 355/5/6 354/5/6 356/5/6
f 357/1/6 358/1/6 359/1/6
f 359/1/6 358/1/6 360/1/6
f 361/1/6 362/1/6 363/1/6
f 363/1/6 362/1/6 364/1/6
f 365/5/6 366/5/6 367/5/6
f 367/5/6 366/5/6 368/5/6
f 369/5/6 370/5/6 371/5/6
f 371/5/6 370/5/6 372/5/6
