# MagicaVoxel @ Ephtracy

# group
o 

# material
mtllib cajas_1.mtl
usemtl palette

# normals
vn -1 0 0
vn 1 0 0
vn 0 0 1
vn 0 0 -1
vn 0 -1 0
vn 0 1 0

# texcoords
vt 0.119141 0.5
vt 0.263672 0.5
vt 0.306641 0.5
vt 0.310547 0.5

# verts
v 0.4 2 -2.5
v 0.4 2 -3.1
v 0.4 2.1 -2.6
v 0.4 2.1 -3
v 0.4 2.4 -2.6
v 0.4 2.4 -3
v 0.4 2.5 -2.5
v 0.4 2.5 -3.1
v 0.5 2 -3.1
v 0.5 2 -4
v 0.5 2.1 -3.3
v 0.5 2.1 -3.8
v 0.5 2.2 -3.2
v 0.5 2.2 -3.3
v 0.5 2.2 -3.4
v 0.5 2.2 -3.7
v 0.5 2.2 -3.8
v 0.5 2.2 -3.9
v 0.5 2.3 -3.3
v 0.5 2.3 -3.4
v 0.5 2.3 -3.5
v 0.5 2.3 -3.6
v 0.5 2.3 -3.7
v 0.5 2.3 -3.8
v 0.5 2.4 -3.4
v 0.5 2.4 -3.5
v 0.5 2.4 -3.6
v 0.5 2.4 -3.7
v 0.5 2.5 -3.1
v 0.5 2.5 -3.4
v 0.5 2.5 -3.5
v 0.5 2.5 -3.6
v 0.5 2.5 -3.7
v 0.5 2.6 -3.3
v 0.5 2.6 -3.4
v 0.5 2.6 -3.5
v 0.5 2.6 -3.6
v 0.5 2.6 -3.7
v 0.5 2.6 -3.8
v 0.5 2.7 -3.2
v 0.5 2.7 -3.3
v 0.5 2.7 -3.4
v 0.5 2.7 -3.7
v 0.5 2.7 -3.8
v 0.5 2.7 -3.9
v 0.5 2.8 -3.3
v 0.5 2.8 -3.8
v 0.5 2.9 -3.1
v 0.5 2.9 -4
v 0.8 2 -2.2
v 0.8 2 -2.5
v 0.8 2.1 -2.3
v 0.8 2.1 -2.4
v 0.8 2.1 -2.5
v 0.8 2.2 -2.3
v 0.8 2.2 -2.4
v 0.8 2.3 -2.2
v 0.8 2.3 -2.5
v 1.1 2 -2.2
v 1.1 2 -2.5
v 1.1 2 -2.6
v 1.1 2 -2.9
v 1.1 2 -3.1
v 1.1 2.1 -2.3
v 1.1 2.1 -2.4
v 1.1 2.1 -2.9
v 1.1 2.1 -3
v 1.1 2.1 -3.1
v 1.1 2.2 -2.3
v 1.1 2.2 -2.4
v 1.1 2.2 -3.1
v 1.1 2.3 -2.2
v 1.1 2.3 -2.5
v 1.1 2.3 -2.6
v 1.1 2.3 -2.9
v 1.1 2.3 -3.1
v 1.1 2.4 -2.6
v 1.1 2.4 -3
v 1.1 2.5 -2.5
v 1.1 2.5 -3.1
v 1.4 2 -2.6
v 1.4 2 -2.9
v 1.4 2 -3.1
v 1.4 2 -3.7
v 1.4 2.1 -2.7
v 1.4 2.1 -2.8
v 1.4 2.1 -3.3
v 1.4 2.1 -3.7
v 1.4 2.2 -2.7
v 1.4 2.2 -2.8
v 1.4 2.2 -3.2
v 1.4 2.2 -3.3
v 1.4 2.2 -3.4
v 1.4 2.3 -2.6
v 1.4 2.3 -2.9
v 1.4 2.3 -3.3
v 1.4 2.3 -3.4
v 1.4 2.3 -3.5
v 1.4 2.3 -3.6
v 1.4 2.3 -3.7
v 1.4 2.3 -3.9
v 1.4 2.3 -4
v 1.4 2.4 -3.4
v 1.4 2.4 -3.5
v 1.4 2.4 -3.6
v 1.4 2.4 -3.7
v 1.4 2.5 -3.4
v 1.4 2.5 -3.5
v 1.4 2.5 -3.6
v 1.4 2.5 -3.7
v 1.4 2.6 -3.3
v 1.4 2.6 -3.4
v 1.4 2.6 -3.5
v 1.4 2.6 -3.6
v 1.4 2.6 -3.7
v 1.4 2.6 -3.8
v 1.4 2.7 -3.2
v 1.4 2.7 -3.3
v 1.4 2.7 -3.4
v 1.4 2.7 -3.7
v 1.4 2.7 -3.8
v 1.4 2.7 -3.9
v 1.4 2.8 -3.3
v 1.4 2.8 -3.8
v 1.4 2.9 -3.1
v 1.4 2.9 -4
v 1.7 2 -3.7
v 1.7 2 -4
v 1.7 2.1 -3.8
v 1.7 2.1 -3.9
v 1.7 2.2 -3.8
v 1.7 2.2 -3.9
v 1.7 2.3 -3.7
v 1.7 2.3 -4
v 0.8 2 -2.2
v 0.8 2.3 -2.2
v 0.9 2.1 -2.2
v 0.9 2.2 -2.2
v 1 2.1 -2.2
v 1 2.2 -2.2
v 1.1 2 -2.2
v 1.1 2.3 -2.2
v 0.4 2 -2.5
v 0.4 2.5 -2.5
v 0.5 2.1 -2.5
v 0.5 2.4 -2.5
v 0.8 2 -2.5
v 0.8 2.1 -2.5
v 0.8 2.3 -2.5
v 1 2.3 -2.5
v 1 2.4 -2.5
v 1.1 2.3 -2.5
v 1.1 2.5 -2.5
v 1.1 2 -2.6
v 1.1 2.3 -2.6
v 1.2 2.1 -2.6
v 1.2 2.2 -2.6
v 1.3 2.1 -2.6
v 1.3 2.2 -2.6
v 1.4 2 -2.6
v 1.4 2.3 -2.6
v 0.5 2.5 -3.1
v 0.5 2.9 -3.1
v 0.6 2.5 -3.1
v 0.6 2.7 -3.1
v 0.7 2.6 -3.1
v 0.7 2.7 -3.1
v 0.7 2.8 -3.1
v 0.8 2.5 -3.1
v 0.8 2.6 -3.1
v 0.8 2.7 -3.1
v 0.9 2.5 -3.1
v 0.9 2.6 -3.1
v 1 2.5 -3.1
v 1 2.6 -3.1
v 1.1 2 -3.1
v 1.1 2.1 -3.1
v 1.1 2.2 -3.1
v 1.1 2.3 -3.1
v 1.1 2.5 -3.1
v 1.1 2.6 -3.1
v 1.1 2.7 -3.1
v 1.2 2.1 -3.1
v 1.2 2.2 -3.1
v 1.2 2.3 -3.1
v 1.2 2.6 -3.1
v 1.2 2.7 -3.1
v 1.2 2.8 -3.1
v 1.3 2.2 -3.1
v 1.3 2.7 -3.1
v 1.4 2 -3.1
v 1.4 2.9 -3.1
v 1.4 2 -3.7
v 1.4 2.1 -3.7
v 1.4 2.3 -3.7
v 1.5 2.1 -3.7
v 1.5 2.2 -3.7
v 1.6 2.1 -3.7
v 1.6 2.2 -3.7
v 1.7 2 -3.7
v 1.7 2.3 -3.7
v 1.1 2 -2.9
v 1.1 2.1 -2.9
v 1.1 2.3 -2.9
v 1.2 2.1 -2.9
v 1.2 2.2 -2.9
v 1.3 2.1 -2.9
v 1.3 2.2 -2.9
v 1.4 2 -2.9
v 1.4 2.3 -2.9
v 0.4 2 -3.1
v 0.4 2.5 -3.1
v 0.5 2 -3.1
v 0.5 2.5 -3.1
v 0.5 2 -4
v 0.5 2.9 -4
v 0.6 2.2 -4
v 0.6 2.7 -4
v 0.7 2.1 -4
v 0.7 2.2 -4
v 0.7 2.3 -4
v 0.7 2.6 -4
v 0.7 2.7 -4
v 0.7 2.8 -4
v 0.8 2.2 -4
v 0.8 2.3 -4
v 0.8 2.4 -4
v 0.8 2.5 -4
v 0.8 2.6 -4
v 0.8 2.7 -4
v 0.9 2.3 -4
v 0.9 2.4 -4
v 0.9 2.5 -4
v 0.9 2.6 -4
v 1 2.3 -4
v 1 2.4 -4
v 1 2.5 -4
v 1 2.6 -4
v 1.1 2.2 -4
v 1.1 2.3 -4
v 1.1 2.4 -4
v 1.1 2.5 -4
v 1.1 2.6 -4
v 1.1 2.7 -4
v 1.2 2.1 -4
v 1.2 2.2 -4
v 1.2 2.3 -4
v 1.2 2.6 -4
v 1.2 2.7 -4
v 1.2 2.8 -4
v 1.3 2.2 -4
v 1.3 2.7 -4
v 1.4 2 -4
v 1.4 2.3 -4
v 1.4 2.9 -4
v 1.5 2.1 -4
v 1.5 2.2 -4
v 1.6 2.1 -4
v 1.6 2.2 -4
v 1.7 2 -4
v 1.7 2.3 -4
v 0.8 2 -2.2
v 1.1 2 -2.2
v 0.9 2 -2.3
v 1 2 -2.3
v 0.9 2 -2.4
v 1 2 -2.4
v 0.4 2 -2.5
v 0.8 2 -2.5
v 1.1 2 -2.5
v 0.5 2 -2.6
v 1 2 -2.6
v 1.1 2 -2.6
v 1.4 2 -2.6
v 1.2 2 -2.7
v 1.3 2 -2.7
v 1.2 2 -2.8
v 1.3 2 -2.8
v 1.1 2 -2.9
v 1.4 2 -2.9
v 0.5 2 -3
v 1 2 -3
v 0.4 2 -3.1
v 0.5 2 -3.1
v 1.1 2 -3.1
v 1.4 2 -3.1
v 0.7 2 -3.2
v 1.2 2 -3.2
v 0.6 2 -3.3
v 0.7 2 -3.3
v 0.8 2 -3.3
v 1.1 2 -3.3
v 1.2 2 -3.3
v 1.3 2 -3.3
v 0.7 2 -3.4
v 0.8 2 -3.4
v 0.9 2 -3.4
v 1 2 -3.4
v 1.1 2 -3.4
v 1.2 2 -3.4
v 0.8 2 -3.5
v 0.9 2 -3.5
v 1 2 -3.5
v 1.1 2 -3.5
v 0.8 2 -3.6
v 0.9 2 -3.6
v 1 2 -3.6
v 1.1 2 -3.6
v 0.7 2 -3.7
v 0.8 2 -3.7
v 0.9 2 -3.7
v 1 2 -3.7
v 1.1 2 -3.7
v 1.2 2 -3.7
v 1.4 2 -3.7
v 1.7 2 -3.7
v 0.6 2 -3.8
v 0.7 2 -3.8
v 0.8 2 -3.8
v 1.1 2 -3.8
v 1.2 2 -3.8
v 1.3 2 -3.8
v 1.5 2 -3.8
v 1.6 2 -3.8
v 0.7 2 -3.9
v 1.2 2 -3.9
v 1.5 2 -3.9
v 1.6 2 -3.9
v 0.5 2 -4
v 1.4 2 -4
v 1.7 2 -4
v 0.8 2.3 -2.2
v 1.1 2.3 -2.2
v 0.9 2.3 -2.3
v 1 2.3 -2.3
v 0.9 2.3 -2.4
v 1 2.3 -2.4
v 0.8 2.3 -2.5
v 1 2.3 -2.5
v 1.1 2.3 -2.5
v 1.1 2.3 -2.6
v 1.4 2.3 -2.6
v 1.2 2.3 -2.7
v 1.3 2.3 -2.7
v 1.2 2.3 -2.8
v 1.3 2.3 -2.8
v 1.1 2.3 -2.9
v 1.4 2.3 -2.9
v 1.4 2.3 -3.7
v 1.7 2.3 -3.7
v 1.5 2.3 -3.8
v 1.6 2.3 -3.8
v 1.4 2.3 -3.9
v 1.5 2.3 -3.9
v 1.6 2.3 -3.9
v 1.4 2.3 -4
v 1.7 2.3 -4
v 0.4 2.5 -2.5
v 1.1 2.5 -2.5
v 0.5 2.5 -2.6
v 1 2.5 -2.6
v 0.5 2.5 -3
v 1 2.5 -3
v 0.4 2.5 -3.1
v 0.5 2.5 -3.1
v 0.6 2.5 -3.1
v 0.8 2.5 -3.1
v 0.9 2.5 -3.1
v 1 2.5 -3.1
v 1.1 2.5 -3.1
v 0.5 2.9 -3.1
v 1.4 2.9 -3.1
v 0.7 2.9 -3.2
v 1.2 2.9 -3.2
v 0.6 2.9 -3.3
v 0.7 2.9 -3.3
v 0.8 2.9 -3.3
v 1.1 2.9 -3.3
v 1.2 2.9 -3.3
v 1.3 2.9 -3.3
v 0.7 2.9 -3.4
v 0.8 2.9 -3.4
v 0.9 2.9 -3.4
v 1 2.9 -3.4
v 1.1 2.9 -3.4
v 1.2 2.9 -3.4
v 0.8 2.9 -3.5
v 0.9 2.9 -3.5
v 1 2.9 -3.5
v 1.1 2.9 -3.5
v 0.8 2.9 -3.6
v 0.9 2.9 -3.6
v 1 2.9 -3.6
v 1.1 2.9 -3.6
v 0.7 2.9 -3.7
v 0.8 2.9 -3.7
v 0.9 2.9 -3.7
v 1 2.9 -3.7
v 1.1 2.9 -3.7
v 1.2 2.9 -3.7
v 0.6 2.9 -3.8
v 0.7 2.9 -3.8
v 0.8 2.9 -3.8
v 1.1 2.9 -3.8
v 1.2 2.9 -3.8
v 1.3 2.9 -3.8
v 0.7 2.9 -3.9
v 1.2 2.9 -3.9
v 0.5 2.9 -4
v 1.4 2.9 -4

# faces
f 3/4/1 2/4/1 1/4/1
f 4/4/1 2/4/1 3/4/1
f 5/4/1 3/4/1 1/4/1
f 5/3/1 4/3/1 3/3/1
f 6/4/1 2/4/1 4/4/1
f 6/3/1 4/3/1 5/3/1
f 7/4/1 5/4/1 1/4/1
f 7/4/1 6/4/1 5/4/1
f 8/4/1 2/4/1 6/4/1
f 8/4/1 6/4/1 7/4/1
f 11/1/1 10/1/1 9/1/1
f 12/1/1 10/1/1 11/1/1
f 13/1/1 11/1/1 9/1/1
f 14/3/1 12/3/1 11/3/1
f 14/1/1 11/1/1 13/1/1
f 15/3/1 12/3/1 14/3/1
f 16/3/1 12/3/1 15/3/1
f 17/1/1 10/1/1 12/1/1
f 17/3/1 12/3/1 16/3/1
f 18/1/1 10/1/1 17/1/1
f 19/3/1 14/3/1 13/3/1
f 19/1/1 15/1/1 14/1/1
f 20/3/1 16/3/1 15/3/1
f 20/1/1 15/1/1 19/1/1
f 21/3/1 16/3/1 20/3/1
f 22/3/1 16/3/1 21/3/1
f 23/1/1 17/1/1 16/1/1
f 23/3/1 16/3/1 22/3/1
f 24/3/1 18/3/1 17/3/1
f 24/1/1 17/1/1 23/1/1
f 25/3/1 20/3/1 19/3/1
f 25/1/1 21/1/1 20/1/1
f 26/3/1 22/3/1 21/3/1
f 26/1/1 21/1/1 25/1/1
f 27/1/1 23/1/1 22/1/1
f 27/3/1 22/3/1 26/3/1
f 28/3/1 24/3/1 23/3/1
f 28/1/1 23/1/1 27/1/1
f 29/1/1 13/1/1 9/1/1
f 30/3/1 26/3/1 25/3/1
f 30/3/1 25/3/1 19/3/1
f 31/1/1 27/1/1 26/1/1
f 31/3/1 26/3/1 30/3/1
f 32/3/1 28/3/1 27/3/1
f 32/1/1 27/1/1 31/1/1
f 33/3/1 24/3/1 28/3/1
f 33/3/1 28/3/1 32/3/1
f 34/3/1 19/3/1 13/3/1
f 34/3/1 30/3/1 19/3/1
f 35/1/1 31/1/1 30/1/1
f 35/3/1 30/3/1 34/3/1
f 36/3/1 32/3/1 31/3/1
f 36/1/1 31/1/1 35/1/1
f 37/1/1 33/1/1 32/1/1
f 37/3/1 32/3/1 36/3/1
f 38/3/1 24/3/1 33/3/1
f 38/1/1 33/1/1 37/1/1
f 39/3/1 18/3/1 24/3/1
f 39/3/1 24/3/1 38/3/1
f 40/1/1 13/1/1 29/1/1
f 40/3/1 34/3/1 13/3/1
f 41/1/1 35/1/1 34/1/1
f 41/3/1 34/3/1 40/3/1
f 42/3/1 37/3/1 36/3/1
f 42/1/1 35/1/1 41/1/1
f 42/3/1 38/3/1 37/3/1
f 42/3/1 36/3/1 35/3/1
f 43/1/1 39/1/1 38/1/1
f 43/3/1 38/3/1 42/3/1
f 44/3/1 18/3/1 39/3/1
f 44/1/1 39/1/1 43/1/1
f 45/1/1 10/1/1 18/1/1
f 45/3/1 18/3/1 44/3/1
f 46/1/1 41/1/1 40/1/1
f 46/3/1 44/3/1 43/3/1
f 46/3/1 43/3/1 42/3/1
f 46/3/1 42/3/1 41/3/1
f 47/1/1 45/1/1 44/1/1
f 47/3/1 44/3/1 46/3/1
f 48/1/1 40/1/1 29/1/1
f 48/1/1 46/1/1 40/1/1
f 48/1/1 47/1/1 46/1/1
f 49/1/1 10/1/1 45/1/1
f 49/1/1 47/1/1 48/1/1
f 49/1/1 45/1/1 47/1/1
f 52/2/1 51/2/1 50/2/1
f 53/2/1 51/2/1 52/2/1
f 54/2/1 51/2/1 53/2/1
f 55/2/1 52/2/1 50/2/1
f 55/3/1 53/3/1 52/3/1
f 56/2/1 54/2/1 53/2/1
f 56/3/1 53/3/1 55/3/1
f 57/2/1 55/2/1 50/2/1
f 57/2/1 56/2/1 55/2/1
f 58/2/1 54/2/1 56/2/1
f 58/2/1 56/2/1 57/2/1
f 59/2/2 60/2/2 64/2/2
f 64/2/2 60/2/2 65/2/2
f 62/4/2 63/4/2 66/4/2
f 66/4/2 63/4/2 67/4/2
f 67/4/2 63/4/2 68/4/2
f 59/2/2 64/2/2 69/2/2
f 64/3/2 65/3/2 69/3/2
f 65/2/2 60/2/2 70/2/2
f 69/3/2 65/3/2 70/3/2
f 67/4/2 68/4/2 71/4/2
f 59/2/2 69/2/2 72/2/2
f 69/2/2 70/2/2 72/2/2
f 60/4/2 61/4/2 73/4/2
f 72/2/2 70/2/2 73/2/2
f 70/2/2 60/2/2 73/2/2
f 73/4/2 61/4/2 74/4/2
f 66/3/2 67/3/2 75/3/2
f 67/4/2 71/4/2 76/4/2
f 74/3/2 75/3/2 77/3/2
f 73/4/2 74/4/2 77/4/2
f 67/4/2 76/4/2 78/4/2
f 77/3/2 75/3/2 78/3/2
f 75/3/2 67/3/2 78/3/2
f 73/4/2 77/4/2 79/4/2
f 77/4/2 78/4/2 79/4/2
f 78/4/2 76/4/2 80/4/2
f 79/4/2 78/4/2 80/4/2
f 81/2/2 82/2/2 85/2/2
f 85/2/2 82/2/2 86/2/2
f 83/1/2 84/1/2 87/1/2
f 87/1/2 84/1/2 88/1/2
f 81/2/2 85/2/2 89/2/2
f 85/3/2 86/3/2 89/3/2
f 86/2/2 82/2/2 90/2/2
f 89/3/2 86/3/2 90/3/2
f 83/1/2 87/1/2 91/1/2
f 87/3/2 88/3/2 92/3/2
f 91/1/2 87/1/2 92/1/2
f 92/3/2 88/3/2 93/3/2
f 81/2/2 89/2/2 94/2/2
f 89/2/2 90/2/2 94/2/2
f 90/2/2 82/2/2 95/2/2
f 94/2/2 90/2/2 95/2/2
f 92/1/2 93/1/2 96/1/2
f 91/3/2 92/3/2 96/3/2
f 93/3/2 88/3/2 97/3/2
f 96/1/2 93/1/2 97/1/2
f 97/3/2 88/3/2 98/3/2
f 98/3/2 88/3/2 99/3/2
f 99/3/2 88/3/2 100/3/2
f 96/3/2 97/3/2 103/3/2
f 97/1/2 98/1/2 103/1/2
f 98/3/2 99/3/2 104/3/2
f 103/1/2 98/1/2 104/1/2
f 99/1/2 100/1/2 105/1/2
f 104/3/2 99/3/2 105/3/2
f 100/3/2 101/3/2 106/3/2
f 105/1/2 100/1/2 106/1/2
f 103/3/2 104/3/2 107/3/2
f 96/3/2 103/3/2 107/3/2
f 104/1/2 105/1/2 108/1/2
f 107/3/2 104/3/2 108/3/2
f 105/3/2 106/3/2 109/3/2
f 108/1/2 105/1/2 109/1/2
f 106/3/2 101/3/2 110/3/2
f 109/3/2 106/3/2 110/3/2
f 91/3/2 96/3/2 111/3/2
f 96/3/2 107/3/2 111/3/2
f 107/1/2 108/1/2 112/1/2
f 111/3/2 107/3/2 112/3/2
f 108/3/2 109/3/2 113/3/2
f 112/1/2 108/1/2 113/1/2
f 109/1/2 110/1/2 114/1/2
f 113/3/2 109/3/2 114/3/2
f 110/3/2 101/3/2 115/3/2
f 114/1/2 110/1/2 115/1/2
f 115/3/2 101/3/2 116/3/2
f 83/1/2 91/1/2 117/1/2
f 91/3/2 111/3/2 117/3/2
f 111/1/2 112/1/2 118/1/2
f 117/3/2 111/3/2 118/3/2
f 113/3/2 114/3/2 119/3/2
f 118/1/2 112/1/2 119/1/2
f 112/3/2 113/3/2 119/3/2
f 114/3/2 115/3/2 119/3/2
f 115/1/2 116/1/2 120/1/2
f 119/3/2 115/3/2 120/3/2
f 116/3/2 101/3/2 121/3/2
f 120/1/2 116/1/2 121/1/2
f 101/1/2 102/1/2 122/1/2
f 121/3/2 101/3/2 122/3/2
f 117/1/2 118/1/2 123/1/2
f 119/3/2 120/3/2 123/3/2
f 120/3/2 121/3/2 123/3/2
f 118/3/2 119/3/2 123/3/2
f 121/1/2 122/1/2 124/1/2
f 123/3/2 121/3/2 124/3/2
f 83/1/2 117/1/2 125/1/2
f 117/1/2 123/1/2 125/1/2
f 123/1/2 124/1/2 125/1/2
f 122/1/2 102/1/2 126/1/2
f 125/1/2 124/1/2 126/1/2
f 124/1/2 122/1/2 126/1/2
f 127/2/2 128/2/2 129/2/2
f 129/2/2 128/2/2 130/2/2
f 127/2/2 129/2/2 131/2/2
f 129/3/2 130/3/2 131/3/2
f 130/2/2 128/2/2 132/2/2
f 131/3/2 130/3/2 132/3/2
f 127/2/2 131/2/2 133/2/2
f 131/2/2 132/2/2 133/2/2
f 132/2/2 128/2/2 134/2/2
f 133/2/2 132/2/2 134/2/2
f 137/2/3 136/2/3 135/2/3
f 138/2/3 136/2/3 137/2/3
f 139/2/3 137/2/3 135/2/3
f 139/3/3 138/3/3 137/3/3
f 140/2/3 136/2/3 138/2/3
f 140/3/3 138/3/3 139/3/3
f 141/2/3 139/2/3 135/2/3
f 141/2/3 140/2/3 139/2/3
f 142/2/3 136/2/3 140/2/3
f 142/2/3 140/2/3 141/2/3
f 145/4/3 144/4/3 143/4/3
f 146/4/3 144/4/3 145/4/3
f 147/4/3 145/4/3 143/4/3
f 148/3/3 146/3/3 145/3/3
f 148/4/3 145/4/3 147/4/3
f 149/3/3 146/3/3 148/3/3
f 150/3/3 146/3/3 149/3/3
f 151/4/3 144/4/3 146/4/3
f 151/3/3 146/3/3 150/3/3
f 152/4/3 151/4/3 150/4/3
f 153/4/3 144/4/3 151/4/3
f 153/4/3 151/4/3 152/4/3
f 156/2/3 155/2/3 154/2/3
f 157/2/3 155/2/3 156/2/3
f 158/2/3 156/2/3 154/2/3
f 158/3/3 157/3/3 156/3/3
f 159/2/3 155/2/3 157/2/3
f 159/3/3 157/3/3 158/3/3
f 160/2/3 158/2/3 154/2/3
f 160/2/3 159/2/3 158/2/3
f 161/2/3 155/2/3 159/2/3
f 161/2/3 159/2/3 160/2/3
f 164/1/3 163/1/3 162/1/3
f 165/1/3 163/1/3 164/1/3
f 166/3/3 165/3/3 164/3/3
f 167/1/3 163/1/3 165/1/3
f 167/3/3 165/3/3 166/3/3
f 168/1/3 163/1/3 167/1/3
f 169/3/3 166/3/3 164/3/3
f 170/1/3 167/1/3 166/1/3
f 170/3/3 166/3/3 169/3/3
f 171/3/3 168/3/3 167/3/3
f 171/1/3 167/1/3 170/1/3
f 172/1/3 170/1/3 169/1/3
f 173/3/3 171/3/3 170/3/3
f 173/1/3 170/1/3 172/1/3
f 174/3/3 173/3/3 172/3/3
f 175/3/3 171/3/3 173/3/3
f 175/3/3 173/3/3 174/3/3
f 180/1/3 175/1/3 174/1/3
f 181/3/3 171/3/3 175/3/3
f 181/1/3 175/1/3 180/1/3
f 182/3/3 168/3/3 171/3/3
f 182/3/3 171/3/3 181/3/3
f 183/1/3 177/1/3 176/1/3
f 183/3/3 178/3/3 177/3/3
f 184/1/3 179/1/3 178/1/3
f 184/3/3 178/3/3 183/3/3
f 185/3/3 181/3/3 180/3/3
f 185/1/3 179/1/3 184/1/3
f 185/3/3 180/3/3 179/3/3
f 186/1/3 182/1/3 181/1/3
f 186/3/3 181/3/3 185/3/3
f 187/3/3 168/3/3 182/3/3
f 187/1/3 182/1/3 186/1/3
f 188/1/3 163/1/3 168/1/3
f 188/3/3 168/3/3 187/3/3
f 189/3/3 187/3/3 186/3/3
f 189/1/3 184/1/3 183/1/3
f 189/3/3 186/3/3 185/3/3
f 189/3/3 185/3/3 184/3/3
f 190/1/3 188/1/3 187/1/3
f 190/3/3 187/3/3 189/3/3
f 191/1/3 189/1/3 183/1/3
f 191/1/3 183/1/3 176/1/3
f 191/1/3 190/1/3 189/1/3
f 192/1/3 163/1/3 188/1/3
f 192/1/3 190/1/3 191/1/3
f 192/1/3 188/1/3 190/1/3
f 196/2/3 194/2/3 193/2/3
f 196/2/3 195/2/3 194/2/3
f 197/2/3 195/2/3 196/2/3
f 198/2/3 196/2/3 193/2/3
f 198/3/3 197/3/3 196/3/3
f 199/2/3 195/2/3 197/2/3
f 199/3/3 197/3/3 198/3/3
f 200/2/3 198/2/3 193/2/3
f 200/2/3 199/2/3 198/2/3
f 201/2/3 195/2/3 199/2/3
f 201/2/3 199/2/3 200/2/3
f 202/2/4 203/2/4 205/2/4
f 203/2/4 204/2/4 205/2/4
f 205/2/4 204/2/4 206/2/4
f 202/2/4 205/2/4 207/2/4
f 205/3/4 206/3/4 207/3/4
f 206/2/4 204/2/4 208/2/4
f 207/3/4 206/3/4 208/3/4
f 202/2/4 207/2/4 209/2/4
f 207/2/4 208/2/4 209/2/4
f 208/2/4 204/2/4 210/2/4
f 209/2/4 208/2/4 210/2/4
f 211/4/4 212/4/4 213/4/4
f 213/4/4 212/4/4 214/4/4
f 215/1/4 216/1/4 217/1/4
f 217/1/4 216/1/4 218/1/4
f 215/1/4 217/1/4 219/1/4
f 217/3/4 218/3/4 220/3/4
f 219/1/4 217/1/4 220/1/4
f 220/3/4 218/3/4 221/3/4
f 221/3/4 218/3/4 222/3/4
f 218/1/4 216/1/4 223/1/4
f 222/3/4 218/3/4 223/3/4
f 223/1/4 216/1/4 224/1/4
f 219/3/4 220/3/4 225/3/4
f 220/1/4 221/1/4 225/1/4
f 221/3/4 222/3/4 226/3/4
f 225/1/4 221/1/4 226/1/4
f 226/3/4 222/3/4 227/3/4
f 227/3/4 222/3/4 228/3/4
f 222/1/4 223/1/4 229/1/4
f 228/3/4 222/3/4 229/3/4
f 223/3/4 224/3/4 230/3/4
f 229/1/4 223/1/4 230/1/4
f 225/3/4 226/3/4 231/3/4
f 226/1/4 227/1/4 231/1/4
f 227/3/4 228/3/4 232/3/4
f 231/1/4 227/1/4 232/1/4
f 228/1/4 229/1/4 233/1/4
f 232/3/4 228/3/4 233/3/4
f 229/3/4 230/3/4 234/3/4
f 233/1/4 229/1/4 234/1/4
f 231/3/4 232/3/4 235/3/4
f 225/3/4 231/3/4 235/3/4
f 232/1/4 233/1/4 236/1/4
f 235/3/4 232/3/4 236/3/4
f 233/3/4 234/3/4 237/3/4
f 236/1/4 233/1/4 237/1/4
f 234/3/4 230/3/4 238/3/4
f 237/3/4 234/3/4 238/3/4
f 219/3/4 225/3/4 239/3/4
f 225/3/4 235/3/4 239/3/4
f 235/1/4 236/1/4 240/1/4
f 239/3/4 235/3/4 240/3/4
f 236/3/4 237/3/4 241/3/4
f 240/1/4 236/1/4 241/1/4
f 237/1/4 238/1/4 242/1/4
f 241/3/4 237/3/4 242/3/4
f 238/3/4 230/3/4 243/3/4
f 242/1/4 238/1/4 243/1/4
f 230/3/4 224/3/4 244/3/4
f 243/3/4 230/3/4 244/3/4
f 215/1/4 219/1/4 245/1/4
f 219/3/4 239/3/4 245/3/4
f 239/1/4 240/1/4 246/1/4
f 245/3/4 239/3/4 246/3/4
f 241/3/4 242/3/4 247/3/4
f 246/1/4 240/1/4 247/1/4
f 242/3/4 243/3/4 247/3/4
f 240/3/4 241/3/4 247/3/4
f 243/1/4 244/1/4 248/1/4
f 247/3/4 243/3/4 248/3/4
f 244/3/4 224/3/4 249/3/4
f 248/1/4 244/1/4 249/1/4
f 224/1/4 216/1/4 250/1/4
f 249/3/4 224/3/4 250/3/4
f 245/1/4 246/1/4 251/1/4
f 247/3/4 248/3/4 251/3/4
f 248/3/4 249/3/4 251/3/4
f 246/3/4 247/3/4 251/3/4
f 249/1/4 250/1/4 252/1/4
f 251/3/4 249/3/4 252/3/4
f 245/1/4 251/1/4 253/1/4
f 215/1/4 245/1/4 253/1/4
f 251/1/4 252/1/4 253/1/4
f 253/1/4 252/1/4 254/1/4
f 250/1/4 216/1/4 255/1/4
f 254/1/4 252/1/4 255/1/4
f 252/1/4 250/1/4 255/1/4
f 253/2/4 254/2/4 256/2/4
f 256/2/4 254/2/4 257/2/4
f 253/2/4 256/2/4 258/2/4
f 256/3/4 257/3/4 258/3/4
f 257/2/4 254/2/4 259/2/4
f 258/3/4 257/3/4 259/3/4
f 253/2/4 258/2/4 260/2/4
f 258/2/4 259/2/4 260/2/4
f 259/2/4 254/2/4 261/2/4
f 260/2/4 259/2/4 261/2/4
f 264/2/5 263/2/5 262/2/5
f 265/2/5 263/2/5 264/2/5
f 266/2/5 264/2/5 262/2/5
f 266/3/5 265/3/5 264/3/5
f 267/2/5 263/2/5 265/2/5
f 267/3/5 265/3/5 266/3/5
f 269/2/5 266/2/5 262/2/5
f 269/2/5 267/2/5 266/2/5
f 270/2/5 263/2/5 267/2/5
f 270/2/5 267/2/5 269/2/5
f 271/4/5 269/4/5 268/4/5
f 271/4/5 270/4/5 269/4/5
f 272/4/5 270/4/5 271/4/5
f 273/4/5 270/4/5 272/4/5
f 275/2/5 274/2/5 273/2/5
f 276/2/5 274/2/5 275/2/5
f 277/2/5 275/2/5 273/2/5
f 277/3/5 276/3/5 275/3/5
f 278/2/5 274/2/5 276/2/5
f 278/3/5 276/3/5 277/3/5
f 279/4/5 273/4/5 272/4/5
f 279/2/5 277/2/5 273/2/5
f 279/2/5 278/2/5 277/2/5
f 280/2/5 274/2/5 278/2/5
f 280/2/5 278/2/5 279/2/5
f 281/4/5 271/4/5 268/4/5
f 281/3/5 272/3/5 271/3/5
f 282/4/5 279/4/5 272/4/5
f 282/3/5 272/3/5 281/3/5
f 283/4/5 281/4/5 268/4/5
f 283/4/5 282/4/5 281/4/5
f 284/4/5 282/4/5 283/4/5
f 285/4/5 279/4/5 282/4/5
f 285/4/5 282/4/5 284/4/5
f 287/1/5 286/1/5 285/1/5
f 287/1/5 285/1/5 284/1/5
f 288/1/5 286/1/5 287/1/5
f 289/1/5 287/1/5 284/1/5
f 290/3/5 288/3/5 287/3/5
f 290/1/5 287/1/5 289/1/5
f 291/3/5 288/3/5 290/3/5
f 292/3/5 288/3/5 291/3/5
f 293/1/5 286/1/5 288/1/5
f 293/3/5 288/3/5 292/3/5
f 294/1/5 286/1/5 293/1/5
f 295/3/5 290/3/5 289/3/5
f 295/1/5 291/1/5 290/1/5
f 296/3/5 292/3/5 291/3/5
f 296/1/5 291/1/5 295/1/5
f 297/3/5 292/3/5 296/3/5
f 298/3/5 292/3/5 297/3/5
f 299/1/5 293/1/5 292/1/5
f 299/3/5 292/3/5 298/3/5
f 300/3/5 294/3/5 293/3/5
f 300/1/5 293/1/5 299/1/5
f 301/3/5 296/3/5 295/3/5
f 301/1/5 297/1/5 296/1/5
f 302/3/5 298/3/5 297/3/5
f 302/1/5 297/1/5 301/1/5
f 303/1/5 299/1/5 298/1/5
f 303/3/5 298/3/5 302/3/5
f 304/3/5 300/3/5 299/3/5
f 304/1/5 299/1/5 303/1/5
f 305/3/5 302/3/5 301/3/5
f 305/3/5 301/3/5 295/3/5
f 306/1/5 303/1/5 302/1/5
f 306/3/5 302/3/5 305/3/5
f 307/3/5 304/3/5 303/3/5
f 307/1/5 303/1/5 306/1/5
f 308/3/5 300/3/5 304/3/5
f 308/3/5 304/3/5 307/3/5
f 309/3/5 295/3/5 289/3/5
f 309/3/5 305/3/5 295/3/5
f 310/1/5 306/1/5 305/1/5
f 310/3/5 305/3/5 309/3/5
f 311/3/5 307/3/5 306/3/5
f 311/1/5 306/1/5 310/1/5
f 312/1/5 308/1/5 307/1/5
f 312/3/5 307/3/5 311/3/5
f 313/3/5 300/3/5 308/3/5
f 313/1/5 308/1/5 312/1/5
f 314/3/5 294/3/5 300/3/5
f 314/3/5 300/3/5 313/3/5
f 315/1/5 286/1/5 294/1/5
f 317/1/5 289/1/5 284/1/5
f 317/3/5 309/3/5 289/3/5
f 318/1/5 310/1/5 309/1/5
f 318/3/5 309/3/5 317/3/5
f 319/3/5 312/3/5 311/3/5
f 319/1/5 310/1/5 318/1/5
f 319/3/5 313/3/5 312/3/5
f 319/3/5 311/3/5 310/3/5
f 320/1/5 314/1/5 313/1/5
f 320/3/5 313/3/5 319/3/5
f 321/3/5 294/3/5 314/3/5
f 321/1/5 314/1/5 320/1/5
f 322/1/5 315/1/5 294/1/5
f 322/3/5 294/3/5 321/3/5
f 323/2/5 316/2/5 315/2/5
f 324/2/5 316/2/5 323/2/5
f 325/3/5 321/3/5 320/3/5
f 325/1/5 318/1/5 317/1/5
f 325/3/5 320/3/5 319/3/5
f 325/3/5 319/3/5 318/3/5
f 326/1/5 322/1/5 321/1/5
f 326/3/5 321/3/5 325/3/5
f 327/3/5 324/3/5 323/3/5
f 327/2/5 323/2/5 315/2/5
f 328/2/5 316/2/5 324/2/5
f 328/3/5 324/3/5 327/3/5
f 329/1/5 326/1/5 325/1/5
f 329/1/5 317/1/5 284/1/5
f 329/1/5 325/1/5 317/1/5
f 330/2/5 327/2/5 315/2/5
f 330/1/5 326/1/5 329/1/5
f 330/1/5 322/1/5 326/1/5
f 330/2/5 328/2/5 327/2/5
f 330/1/5 315/1/5 322/1/5
f 331/2/5 316/2/5 328/2/5
f 331/2/5 328/2/5 330/2/5
f 332/2/6 333/2/6 334/2/6
f 334/2/6 333/2/6 335/2/6
f 332/2/6 334/2/6 336/2/6
f 334/3/6 335/3/6 336/3/6
f 335/2/6 333/2/6 337/2/6
f 336/3/6 335/3/6 337/3/6
f 332/2/6 336/2/6 338/2/6
f 336/2/6 337/2/6 338/2/6
f 337/2/6 333/2/6 339/2/6
f 338/2/6 337/2/6 339/2/6
f 339/2/6 333/2/6 340/2/6
f 341/2/6 342/2/6 343/2/6
f 343/2/6 342/2/6 344/2/6
f 341/2/6 343/2/6 345/2/6
f 343/3/6 344/3/6 345/3/6
f 344/2/6 342/2/6 346/2/6
f 345/3/6 344/3/6 346/3/6
f 341/2/6 345/2/6 347/2/6
f 345/2/6 346/2/6 347/2/6
f 346/2/6 342/2/6 348/2/6
f 347/2/6 346/2/6 348/2/6
f 349/2/6 350/2/6 351/2/6
f 351/2/6 350/2/6 352/2/6
f 349/2/6 351/2/6 353/2/6
f 351/3/6 352/3/6 354/3/6
f 353/2/6 351/2/6 354/2/6
f 352/2/6 350/2/6 355/2/6
f 354/3/6 352/3/6 355/3/6
f 353/2/6 354/2/6 356/2/6
f 354/2/6 355/2/6 356/2/6
f 355/2/6 350/2/6 357/2/6
f 356/2/6 355/2/6 357/2/6
f 358/4/6 359/4/6 360/4/6
f 360/4/6 359/4/6 361/4/6
f 358/4/6 360/4/6 362/4/6
f 360/3/6 361/3/6 362/3/6
f 361/4/6 359/4/6 363/4/6
f 362/3/6 361/3/6 363/3/6
f 358/4/6 362/4/6 364/4/6
f 362/4/6 363/4/6 364/4/6
f 364/4/6 363/4/6 365/4/6
f 365/4/6 363/4/6 366/4/6
f 366/4/6 363/4/6 367/4/6
f 367/4/6 363/4/6 368/4/6
f 363/4/6 359/4/6 369/4/6
f 368/4/6 363/4/6 369/4/6
f 369/4/6 359/4/6 370/4/6
f 371/1/6 372/1/6 373/1/6
f 373/1/6 372/1/6 374/1/6
f 371/1/6 373/1/6 375/1/6
f 373/3/6 374/3/6 376/3/6
f 375/1/6 373/1/6 376/1/6
f 376/3/6 374/3/6 377/3/6
f 377/3/6 374/3/6 378/3/6
f 374/1/6 372/1/6 379/1/6
f 378/3/6 374/3/6 379/3/6
f 379/1/6 372/1/6 380/1/6
f 375/3/6 376/3/6 381/3/6
f 376/1/6 377/1/6 381/1/6
f 377/3/6 378/3/6 382/3/6
f 381/1/6 377/1/6 382/1/6
f 382/3/6 378/3/6 383/3/6
f 383/3/6 378/3/6 384/3/6
f 378/1/6 379/1/6 385/1/6
f 384/3/6 378/3/6 385/3/6
f 379/3/6 380/3/6 386/3/6
f 385/1/6 379/1/6 386/1/6
f 381/3/6 382/3/6 387/3/6
f 382/1/6 383/1/6 387/1/6
f 383/3/6 384/3/6 388/3/6
f 387/1/6 383/1/6 388/1/6
f 384/1/6 385/1/6 389/1/6
f 388/3/6 384/3/6 389/3/6
f 385/3/6 386/3/6 390/3/6
f 389/1/6 385/1/6 390/1/6
f 387/3/6 388/3/6 391/3/6
f 381/3/6 387/3/6 391/3/6
f 388/1/6 389/1/6 392/1/6
f 391/3/6 388/3/6 392/3/6
f 389/3/6 390/3/6 393/3/6
f 392/1/6 389/1/6 393/1/6
f 390/3/6 386/3/6 394/3/6
f 393/3/6 390/3/6 394/3/6
f 375/3/6 381/3/6 395/3/6
f 381/3/6 391/3/6 395/3/6
f 391/1/6 392/1/6 396/1/6
f 395/3/6 391/3/6 396/3/6
f 392/3/6 393/3/6 397/3/6
f 396/1/6 392/1/6 397/1/6
f 393/1/6 394/1/6 398/1/6
f 397/3/6 393/3/6 398/3/6
f 394/3/6 386/3/6 399/3/6
f 398/1/6 394/1/6 399/1/6
f 386/3/6 380/3/6 400/3/6
f 399/3/6 386/3/6 400/3/6
f 371/1/6 375/1/6 401/1/6
f 375/3/6 395/3/6 401/3/6
f 395/1/6 396/1/6 402/1/6
f 401/3/6 395/3/6 402/3/6
f 397/3/6 398/3/6 403/3/6
f 402/1/6 396/1/6 403/1/6
f 398/3/6 399/3/6 403/3/6
f 396/3/6 397/3/6 403/3/6
f 399/1/6 400/1/6 404/1/6
f 403/3/6 399/3/6 404/3/6
f 400/3/6 380/3/6 405/3/6
f 404/1/6 400/1/6 405/1/6
f 380/1/6 372/1/6 406/1/6
f 405/3/6 380/3/6 406/3/6
f 401/1/6 402/1/6 407/1/6
f 403/3/6 404/3/6 407/3/6
f 404/3/6 405/3/6 407/3/6
f 402/3/6 403/3/6 407/3/6
f 405/1/6 406/1/6 408/1/6
f 407/3/6 405/3/6 408/3/6
f 401/1/6 407/1/6 409/1/6
f 371/1/6 401/1/6 409/1/6
f 407/1/6 408/1/6 409/1/6
f 406/1/6 372/1/6 410/1/6
f 409/1/6 408/1/6 410/1/6
f 408/1/6 406/1/6 410/1/6
