# MagicaVoxel @ Ephtracy

# group
o 

# material
mtllib guardia.mtl
usemtl palette

# normals
vn -1 0 0
vn 1 0 0
vn 0 0 1
vn 0 0 -1
vn 0 -1 0
vn 0 1 0

# texcoords
vt 0.845703 0.5
vt 0.849609 0.5
vt 0.853516 0.5
vt 0.857422 0.5
vt 0.908203 0.5
vt 0.919922 0.5

# verts
v 0.3 2 -0.6
v 0.3 2 -3.4
v 0.3 2.3 -0.6
v 0.3 2.3 -3.4
v 0.6 3.6 -0.9
v 0.6 3.6 -3.1
v 0.6 4.5 -0.9
v 0.6 4.5 -3.1
v 0.7 3 -1
v 0.7 3 -3
v 0.7 3.6 -1
v 0.7 3.6 -3
v 0.8 4.8 -1.1
v 0.8 4.8 -2.9
v 0.8 5.8 -1.1
v 0.8 5.8 -2.9
v 0.9 2.6 -1.2
v 0.9 2.6 -2.8
v 0.9 3 -1.2
v 0.9 3 -2.8
v 0.9 4.7 -1.2
v 0.9 4.7 -2.8
v 0.9 4.8 -1.2
v 0.9 4.8 -2.8
v 1 5.8 -1.3
v 1 5.8 -2.7
v 1 5.9 -1.3
v 1 5.9 -2.7
v 1.3 4 -0.1
v 1.3 4 -0.8
v 1.3 4 -3.2
v 1.3 4 -3.9
v 1.3 4.7 -0.1
v 1.3 4.7 -0.8
v 1.3 4.7 -3.2
v 1.3 4.7 -3.9
v 1.3 5.9 -1.7
v 1.3 5.9 -2.3
v 1.3 6 -1.7
v 1.3 6 -2.3
v 3.3 5.3 -3.4
v 3.3 5.3 -3.6
v 3.3 5.9 -3.4
v 3.3 5.9 -3.6
v 3.4 2.3 -3.4
v 3.4 2.3 -3.6
v 3.4 4 -3.4
v 3.4 4 -3.6
v 3.4 4.6 -3.4
v 3.4 4.6 -3.6
v 3.4 5.2 -3.4
v 3.4 5.2 -3.6
v 3.4 5.3 -3.4
v 3.4 5.3 -3.6
v 3.4 5.9 -3.4
v 3.4 5.9 -3.6
v 3.4 6 -3.4
v 3.4 6 -3.6
v 2 5.9 -1.7
v 2 5.9 -2.3
v 2 6 -1.7
v 2 6 -2.3
v 2.1 4.8 -1.1
v 2.1 4.8 -1.2
v 2.1 4.8 -2.8
v 2.1 4.8 -2.9
v 2.1 5.2 -1.1
v 2.1 5.2 -1.2
v 2.1 5.2 -2.8
v 2.1 5.2 -2.9
v 2.2 4.6 -0.1
v 2.2 4.6 -0.8
v 2.2 4.6 -3.2
v 2.2 4.6 -3.9
v 2.2 4.7 -0.1
v 2.2 4.7 -0.8
v 2.2 4.7 -3.2
v 2.2 4.7 -3.9
v 2.3 5.8 -1.3
v 2.3 5.8 -2.7
v 2.3 5.9 -1.3
v 2.3 5.9 -2.7
v 2.5 2.6 -1.2
v 2.5 2.6 -2.8
v 2.5 3 -1.2
v 2.5 3 -2.8
v 2.5 4.7 -1.2
v 2.5 4.7 -2.8
v 2.5 4.8 -1.9
v 2.5 4.8 -2.1
v 2.5 4.9 -1.5
v 2.5 4.9 -1.8
v 2.5 4.9 -1.9
v 2.5 4.9 -2.1
v 2.5 4.9 -2.2
v 2.5 4.9 -2.5
v 2.5 5 -1.5
v 2.5 5 -1.8
v 2.5 5 -2.2
v 2.5 5 -2.5
v 2.5 5.1 -1.9
v 2.5 5.1 -2.1
v 2.5 5.2 -1.1
v 2.5 5.2 -1.2
v 2.5 5.2 -2.8
v 2.5 5.2 -2.9
v 2.5 5.3 -1.5
v 2.5 5.3 -1.7
v 2.5 5.3 -1.9
v 2.5 5.3 -2.1
v 2.5 5.3 -2.3
v 2.5 5.3 -2.5
v 2.5 5.4 -1.4
v 2.5 5.4 -1.5
v 2.5 5.4 -1.7
v 2.5 5.4 -1.8
v 2.5 5.4 -2.2
v 2.5 5.4 -2.3
v 2.5 5.4 -2.5
v 2.5 5.4 -2.6
v 2.5 5.5 -1.4
v 2.5 5.5 -1.5
v 2.5 5.5 -1.7
v 2.5 5.5 -1.8
v 2.5 5.5 -2.2
v 2.5 5.5 -2.3
v 2.5 5.5 -2.5
v 2.5 5.5 -2.6
v 2.5 5.7 -1.2
v 2.5 5.7 -2.8
v 2.5 5.8 -1.1
v 2.5 5.8 -2.9
v 2.6 3 -1
v 2.6 3 -3
v 2.6 3.6 -1
v 2.6 3.6 -3
v 2.8 3.6 -0.9
v 2.8 3.6 -3.1
v 2.8 4.5 -0.9
v 2.8 4.5 -3.1
v 2.9 5.1 -1.9
v 2.9 5.1 -2.1
v 2.9 5.3 -1.9
v 2.9 5.3 -2.1
v 3.1 2 -0.6
v 3.1 2 -3.4
v 3.1 2.3 -0.6
v 3.1 2.3 -3.4
v 3.4 4 -0.3
v 3.4 4 -0.8
v 3.4 4 -3.2
v 3.4 4 -3.4
v 3.4 4 -3.6
v 3.4 4 -3.7
v 3.4 4.4 -0.6
v 3.4 4.4 -0.8
v 3.4 4.4 -3.2
v 3.4 4.4 -3.4
v 3.4 4.6 -0.3
v 3.4 4.6 -0.6
v 3.4 4.6 -3.6
v 3.4 4.6 -3.7
v 3.5 5.9 -3.4
v 3.5 5.9 -3.6
v 3.5 6 -3.4
v 3.5 6 -3.6
v 3.6 2.3 -3.4
v 3.6 2.3 -3.6
v 3.6 4.4 -0.6
v 3.6 4.4 -0.8
v 3.6 4.4 -3.2
v 3.6 4.4 -3.4
v 3.6 4.6 -0.6
v 3.6 4.6 -0.8
v 3.6 4.6 -3.2
v 3.6 4.6 -3.4
v 3.6 5.2 -3.4
v 3.6 5.2 -3.6
v 3.6 5.3 -3.4
v 3.6 5.3 -3.6
v 3.6 5.7 -3.4
v 3.6 5.7 -3.6
v 3.6 5.9 -3.4
v 3.6 5.9 -3.6
v 3.7 4 -0.1
v 3.7 4 -0.3
v 3.7 4 -3.7
v 3.7 4 -3.9
v 3.7 4.6 -0.1
v 3.7 4.6 -0.3
v 3.7 4.6 -3.7
v 3.7 4.6 -3.9
v 3.7 5.3 -3.4
v 3.7 5.3 -3.6
v 3.7 5.7 -3.4
v 3.7 5.7 -3.6
v 1.3 4 -0.1
v 1.3 4.7 -0.1
v 2.2 4.6 -0.1
v 2.2 4.7 -0.1
v 3.1 4 -0.1
v 3.1 4.6 -0.1
v 3.7 4 -0.1
v 3.7 4.6 -0.1
v 0.3 2 -0.6
v 0.3 2.3 -0.6
v 3.1 2 -0.6
v 3.1 2.3 -0.6
v 3.4 4.4 -0.6
v 3.4 4.6 -0.6
v 3.6 4.4 -0.6
v 3.6 4.6 -0.6
v 0.6 3.6 -0.9
v 0.6 4.5 -0.9
v 2.8 3.6 -0.9
v 2.8 4.5 -0.9
v 0.7 3 -1
v 0.7 3.6 -1
v 2.6 3 -1
v 2.6 3.6 -1
v 0.8 4.8 -1.1
v 0.8 5.8 -1.1
v 2.1 4.8 -1.1
v 2.1 5.2 -1.1
v 2.5 5.2 -1.1
v 2.5 5.8 -1.1
v 0.9 2.6 -1.2
v 0.9 3 -1.2
v 0.9 4.7 -1.2
v 0.9 4.8 -1.2
v 2.1 4.8 -1.2
v 2.1 5.2 -1.2
v 2.5 2.6 -1.2
v 2.5 3 -1.2
v 2.5 4.7 -1.2
v 2.5 5.2 -1.2
v 1 5.8 -1.3
v 1 5.9 -1.3
v 2.3 5.8 -1.3
v 2.3 5.9 -1.3
v 1.3 5.9 -1.7
v 1.3 6 -1.7
v 2 5.9 -1.7
v 2 6 -1.7
v 2.5 5.1 -1.9
v 2.5 5.3 -1.9
v 2.9 5.1 -1.9
v 2.9 5.3 -1.9
v 1.3 4 -3.2
v 1.3 4.7 -3.2
v 2.2 4.6 -3.2
v 2.2 4.7 -3.2
v 3.1 4 -3.2
v 3.1 4.6 -3.2
v 3.4 4 -3.2
v 3.4 4.4 -3.2
v 3.6 4.4 -3.2
v 3.6 4.6 -3.2
v 3.3 5.3 -3.4
v 3.3 5.9 -3.4
v 3.4 2.3 -3.4
v 3.4 4 -3.4
v 3.4 4.4 -3.4
v 3.4 4.6 -3.4
v 3.4 5.2 -3.4
v 3.4 5.3 -3.4
v 3.4 5.9 -3.4
v 3.4 6 -3.4
v 3.5 5.9 -3.4
v 3.5 6 -3.4
v 3.6 2.3 -3.4
v 3.6 4.4 -3.4
v 3.6 4.6 -3.4
v 3.6 5.2 -3.4
v 3.6 5.3 -3.4
v 3.6 5.7 -3.4
v 3.6 5.9 -3.4
v 3.7 5.3 -3.4
v 3.7 5.7 -3.4
v 3.4 4 -3.7
v 3.4 4.6 -3.7
v 3.7 4 -3.7
v 3.7 4.6 -3.7
v 3.4 4 -0.3
v 3.4 4.6 -0.3
v 3.7 4 -0.3
v 3.7 4.6 -0.3
v 1.3 4 -0.8
v 1.3 4.7 -0.8
v 2.2 4.6 -0.8
v 2.2 4.7 -0.8
v 3.1 4 -0.8
v 3.1 4.6 -0.8
v 3.4 4 -0.8
v 3.4 4.4 -0.8
v 3.6 4.4 -0.8
v 3.6 4.6 -0.8
v 2.5 5.1 -2.1
v 2.5 5.3 -2.1
v 2.9 5.1 -2.1
v 2.9 5.3 -2.1
v 1.3 5.9 -2.3
v 1.3 6 -2.3
v 2 5.9 -2.3
v 2 6 -2.3
v 1 5.8 -2.7
v 1 5.9 -2.7
v 2.3 5.8 -2.7
v 2.3 5.9 -2.7
v 0.9 2.6 -2.8
v 0.9 3 -2.8
v 0.9 4.7 -2.8
v 0.9 4.8 -2.8
v 2.1 4.8 -2.8
v 2.1 5.2 -2.8
v 2.5 2.6 -2.8
v 2.5 3 -2.8
v 2.5 4.7 -2.8
v 2.5 5.2 -2.8
v 0.8 4.8 -2.9
v 0.8 5.8 -2.9
v 2.1 4.8 -2.9
v 2.1 5.2 -2.9
v 2.5 5.2 -2.9
v 2.5 5.8 -2.9
v 0.7 3 -3
v 0.7 3.6 -3
v 2.6 3 -3
v 2.6 3.6 -3
v 0.6 3.6 -3.1
v 0.6 4.5 -3.1
v 2.8 3.6 -3.1
v 2.8 4.5 -3.1
v 0.3 2 -3.4
v 0.3 2.3 -3.4
v 3.1 2 -3.4
v 3.1 2.3 -3.4
v 3.3 5.3 -3.6
v 3.3 5.9 -3.6
v 3.4 2.3 -3.6
v 3.4 4 -3.6
v 3.4 4.6 -3.6
v 3.4 5.2 -3.6
v 3.4 5.3 -3.6
v 3.4 5.9 -3.6
v 3.4 6 -3.6
v 3.5 5.9 -3.6
v 3.5 6 -3.6
v 3.6 2.3 -3.6
v 3.6 5.2 -3.6
v 3.6 5.3 -3.6
v 3.6 5.7 -3.6
v 3.6 5.9 -3.6
v 3.7 5.3 -3.6
v 3.7 5.7 -3.6
v 1.3 4 -3.9
v 1.3 4.7 -3.9
v 2.2 4.6 -3.9
v 2.2 4.7 -3.9
v 3.1 4 -3.9
v 3.1 4.6 -3.9
v 3.7 4 -3.9
v 3.7 4.6 -3.9
v 0.3 2 -0.6
v 3.1 2 -0.6
v 0.3 2 -3.4
v 3.1 2 -3.4
v 3.4 2.3 -3.4
v 3.6 2.3 -3.4
v 3.4 2.3 -3.6
v 3.6 2.3 -3.6
v 0.9 2.6 -1.2
v 2.5 2.6 -1.2
v 0.9 2.6 -2.8
v 2.5 2.6 -2.8
v 0.7 3 -1
v 2.6 3 -1
v 0.9 3 -1.2
v 2.5 3 -1.2
v 0.9 3 -2.8
v 2.5 3 -2.8
v 0.7 3 -3
v 2.6 3 -3
v 0.6 3.6 -0.9
v 2.8 3.6 -0.9
v 0.7 3.6 -1
v 2.6 3.6 -1
v 0.7 3.6 -3
v 2.6 3.6 -3
v 0.6 3.6 -3.1
v 2.8 3.6 -3.1
v 1.3 4 -0.1
v 3.1 4 -0.1
v 3.7 4 -0.1
v 3.4 4 -0.3
v 3.7 4 -0.3
v 1.3 4 -0.8
v 3.1 4 -0.8
v 3.4 4 -0.8
v 1.3 4 -3.2
v 3.1 4 -3.2
v 3.4 4 -3.2
v 3.4 4 -3.4
v 3.4 4 -3.6
v 3.4 4 -3.7
v 3.7 4 -3.7
v 1.3 4 -3.9
v 3.1 4 -3.9
v 3.7 4 -3.9
v 3.4 4.4 -0.6
v 3.6 4.4 -0.6
v 3.4 4.4 -0.8
v 3.6 4.4 -0.8
v 3.4 4.4 -3.2
v 3.6 4.4 -3.2
v 3.4 4.4 -3.4
v 3.6 4.4 -3.4
v 0.9 4.7 -1.2
v 2.5 4.7 -1.2
v 0.9 4.7 -2.8
v 2.5 4.7 -2.8
v 0.8 4.8 -1.1
v 2.1 4.8 -1.1
v 0.9 4.8 -1.2
v 2.1 4.8 -1.2
v 0.9 4.8 -2.8
v 2.1 4.8 -2.8
v 0.8 4.8 -2.9
v 2.1 4.8 -2.9
v 2.5 5.1 -1.9
v 2.9 5.1 -1.9
v 2.5 5.1 -2.1
v 2.9 5.1 -2.1
v 2.1 5.2 -1.1
v 2.5 5.2 -1.1
v 2.1 5.2 -1.2
v 2.5 5.2 -1.2
v 2.1 5.2 -2.8
v 2.5 5.2 -2.8
v 2.1 5.2 -2.9
v 2.5 5.2 -2.9
v 3.3 5.3 -3.4
v 3.4 5.3 -3.4
v 3.6 5.3 -3.4
v 3.7 5.3 -3.4
v 3.3 5.3 -3.6
v 3.4 5.3 -3.6
v 3.6 5.3 -3.6
v 3.7 5.3 -3.6
v 0.3 2.3 -0.6
v 3.1 2.3 -0.6
v 0.3 2.3 -3.4
v 3.1 2.3 -3.4
v 0.6 4.5 -0.9
v 2.8 4.5 -0.9
v 0.6 4.5 -3.1
v 2.8 4.5 -3.1
v 2.2 4.6 -0.1
v 3.1 4.6 -0.1
v 3.7 4.6 -0.1
v 3.4 4.6 -0.3
v 3.7 4.6 -0.3
v 3.4 4.6 -0.6
v 3.6 4.6 -0.6
v 2.2 4.6 -0.8
v 3.1 4.6 -0.8
v 3.6 4.6 -0.8
v 2.2 4.6 -3.2
v 3.1 4.6 -3.2
v 3.6 4.6 -3.2
v 3.4 4.6 -3.4
v 3.6 4.6 -3.4
v 3.4 4.6 -3.6
v 3.4 4.6 -3.7
v 3.7 4.6 -3.7
v 2.2 4.6 -3.9
v 3.1 4.6 -3.9
v 3.7 4.6 -3.9
v 1.3 4.7 -0.1
v 2.2 4.7 -0.1
v 1.3 4.7 -0.8
v 2.2 4.7 -0.8
v 1.3 4.7 -3.2
v 2.2 4.7 -3.2
v 1.3 4.7 -3.9
v 2.2 4.7 -3.9
v 2.5 5.3 -1.9
v 2.9 5.3 -1.9
v 2.5 5.3 -2.1
v 2.9 5.3 -2.1
v 3.6 5.7 -3.4
v 3.7 5.7 -3.4
v 3.6 5.7 -3.6
v 3.7 5.7 -3.6
v 0.8 5.8 -1.1
v 2.5 5.8 -1.1
v 1 5.8 -1.3
v 2.3 5.8 -1.3
v 1 5.8 -2.7
v 2.3 5.8 -2.7
v 0.8 5.8 -2.9
v 2.5 5.8 -2.9
v 1 5.9 -1.3
v 2.3 5.9 -1.3
v 1.3 5.9 -1.7
v 2 5.9 -1.7
v 1.3 5.9 -2.3
v 2 5.9 -2.3
v 1 5.9 -2.7
v 2.3 5.9 -2.7
v 3.3 5.9 -3.4
v 3.4 5.9 -3.4
v 3.5 5.9 -3.4
v 3.6 5.9 -3.4
v 3.3 5.9 -3.6
v 3.4 5.9 -3.6
v 3.5 5.9 -3.6
v 3.6 5.9 -3.6
v 1.3 6 -1.7
v 2 6 -1.7
v 1.3 6 -2.3
v 2 6 -2.3
v 3.4 6 -3.4
v 3.5 6 -3.4
v 3.4 6 -3.6
v 3.5 6 -3.6

# faces
f 3/4/1 2/4/1 1/4/1
f 4/4/1 2/4/1 3/4/1
f 7/1/1 6/1/1 5/1/1
f 8/1/1 6/1/1 7/1/1
f 11/1/1 10/1/1 9/1/1
f 12/1/1 10/1/1 11/1/1
f 15/1/1 14/1/1 13/1/1
f 16/1/1 14/1/1 15/1/1
f 19/1/1 18/1/1 17/1/1
f 20/1/1 18/1/1 19/1/1
f 23/5/1 22/5/1 21/5/1
f 24/5/1 22/5/1 23/5/1
f 27/1/1 26/1/1 25/1/1
f 28/1/1 26/1/1 27/1/1
f 33/1/1 30/1/1 29/1/1
f 34/1/1 30/1/1 33/1/1
f 35/1/1 32/1/1 31/1/1
f 36/1/1 32/1/1 35/1/1
f 39/1/1 38/1/1 37/1/1
f 40/1/1 38/1/1 39/1/1
f 43/1/1 42/1/1 41/1/1
f 44/1/1 42/1/1 43/1/1
f 47/6/1 46/6/1 45/6/1
f 48/6/1 46/6/1 47/6/1
f 51/6/1 50/6/1 49/6/1
f 52/6/1 50/6/1 51/6/1
f 53/1/1 52/1/1 51/1/1
f 54/1/1 52/1/1 53/1/1
f 57/1/1 56/1/1 55/1/1
f 58/1/1 56/1/1 57/1/1
f 59/1/2 60/1/2 61/1/2
f 61/1/2 60/1/2 62/1/2
f 63/1/2 64/1/2 67/1/2
f 67/1/2 64/1/2 68/1/2
f 65/1/2 66/1/2 69/1/2
f 69/1/2 66/1/2 70/1/2
f 71/1/2 72/1/2 75/1/2
f 75/1/2 72/1/2 76/1/2
f 73/1/2 74/1/2 77/1/2
f 77/1/2 74/1/2 78/1/2
f 79/1/2 80/1/2 81/1/2
f 81/1/2 80/1/2 82/1/2
f 83/1/2 84/1/2 85/1/2
f 85/1/2 84/1/2 86/1/2
f 87/5/2 88/5/2 89/5/2
f 89/5/2 88/5/2 90/5/2
f 87/5/2 89/5/2 91/5/2
f 91/5/2 89/5/2 92/5/2
f 89/3/2 90/3/2 93/3/2
f 92/5/2 89/5/2 93/5/2
f 90/5/2 88/5/2 94/5/2
f 93/3/2 90/3/2 94/3/2
f 94/5/2 88/5/2 95/5/2
f 95/5/2 88/5/2 96/5/2
f 91/2/2 92/2/2 97/2/2
f 87/5/2 91/5/2 97/5/2
f 92/3/2 93/3/2 98/3/2
f 97/2/2 92/2/2 98/2/2
f 93/3/2 94/3/2 98/3/2
f 94/3/2 95/3/2 98/3/2
f 95/2/2 96/2/2 99/2/2
f 98/3/2 95/3/2 99/3/2
f 96/5/2 88/5/2 100/5/2
f 99/2/2 96/2/2 100/2/2
f 98/5/2 99/5/2 101/5/2
f 97/5/2 98/5/2 101/5/2
f 99/5/2 100/5/2 101/5/2
f 101/5/2 100/5/2 102/5/2
f 87/5/2 97/5/2 104/5/2
f 97/5/2 101/5/2 104/5/2
f 102/5/2 100/5/2 105/5/2
f 100/5/2 88/5/2 105/5/2
f 104/5/2 101/5/2 107/5/2
f 107/5/2 101/5/2 108/5/2
f 108/5/2 101/5/2 109/5/2
f 102/5/2 105/5/2 110/5/2
f 110/5/2 105/5/2 111/5/2
f 111/5/2 105/5/2 112/5/2
f 104/5/2 107/5/2 113/5/2
f 107/3/2 108/3/2 114/3/2
f 113/5/2 107/5/2 114/5/2
f 108/5/2 109/5/2 115/5/2
f 114/3/2 108/3/2 115/3/2
f 109/5/2 110/5/2 115/5/2
f 110/5/2 111/5/2 115/5/2
f 115/5/2 111/5/2 116/5/2
f 116/5/2 111/5/2 117/5/2
f 111/3/2 112/3/2 118/3/2
f 117/5/2 111/5/2 118/5/2
f 112/5/2 105/5/2 119/5/2
f 118/3/2 112/3/2 119/3/2
f 119/5/2 105/5/2 120/5/2
f 113/2/2 114/2/2 121/2/2
f 104/5/2 113/5/2 121/5/2
f 114/3/2 115/3/2 122/3/2
f 121/2/2 114/2/2 122/2/2
f 115/2/2 116/2/2 123/2/2
f 122/3/2 115/3/2 123/3/2
f 116/5/2 117/5/2 124/5/2
f 123/2/2 116/2/2 124/2/2
f 117/2/2 118/2/2 125/2/2
f 124/5/2 117/5/2 125/5/2
f 118/3/2 119/3/2 126/3/2
f 125/2/2 118/2/2 126/2/2
f 119/2/2 120/2/2 127/2/2
f 126/3/2 119/3/2 127/3/2
f 120/5/2 105/5/2 128/5/2
f 127/2/2 120/2/2 128/2/2
f 126/5/2 127/5/2 129/5/2
f 103/1/2 104/1/2 129/1/2
f 127/5/2 128/5/2 129/5/2
f 124/5/2 125/5/2 129/5/2
f 121/5/2 122/5/2 129/5/2
f 104/5/2 121/5/2 129/5/2
f 122/5/2 123/5/2 129/5/2
f 123/5/2 124/5/2 129/5/2
f 125/5/2 126/5/2 129/5/2
f 128/5/2 105/5/2 130/5/2
f 129/5/2 128/5/2 130/5/2
f 105/1/2 106/1/2 130/1/2
f 103/1/2 129/1/2 131/1/2
f 129/1/2 130/1/2 131/1/2
f 130/1/2 106/1/2 132/1/2
f 131/1/2 130/1/2 132/1/2
f 133/1/2 134/1/2 135/1/2
f 135/1/2 134/1/2 136/1/2
f 137/1/2 138/1/2 139/1/2
f 139/1/2 138/1/2 140/1/2
f 141/5/2 142/5/2 143/5/2
f 143/5/2 142/5/2 144/5/2
f 145/4/2 146/4/2 147/4/2
f 147/4/2 146/4/2 148/4/2
f 149/5/2 150/5/2 155/5/2
f 155/5/2 150/5/2 156/5/2
f 151/5/2 152/5/2 157/5/2
f 157/5/2 152/5/2 158/5/2
f 149/5/2 155/5/2 159/5/2
f 159/5/2 155/5/2 160/5/2
f 153/5/2 154/5/2 161/5/2
f 161/5/2 154/5/2 162/5/2
f 163/1/2 164/1/2 165/1/2
f 165/1/2 164/1/2 166/1/2
f 167/6/2 168/6/2 172/6/2
f 169/5/2 170/5/2 173/5/2
f 173/5/2 170/5/2 174/5/2
f 171/5/2 172/5/2 175/5/2
f 172/6/2 168/6/2 176/6/2
f 175/5/2 172/5/2 176/5/2
f 176/6/2 168/6/2 177/6/2
f 177/6/2 168/6/2 178/6/2
f 177/1/2 178/1/2 179/1/2
f 179/1/2 178/1/2 180/1/2
f 181/1/2 182/1/2 183/1/2
f 183/1/2 182/1/2 184/1/2
f 185/5/2 186/5/2 189/5/2
f 189/5/2 186/5/2 190/5/2
f 187/5/2 188/5/2 191/5/2
f 191/5/2 188/5/2 192/5/2
f 193/1/2 194/1/2 195/1/2
f 195/1/2 194/1/2 196/1/2
f 199/1/3 198/1/3 197/1/3
f 200/1/3 198/1/3 199/1/3
f 201/1/3 199/1/3 197/1/3
f 202/1/3 199/1/3 201/1/3
f 203/5/3 202/5/3 201/5/3
f 204/5/3 202/5/3 203/5/3
f 207/4/3 206/4/3 205/4/3
f 208/4/3 206/4/3 207/4/3
f 211/5/3 210/5/3 209/5/3
f 212/5/3 210/5/3 211/5/3
f 215/1/3 214/1/3 213/1/3
f 216/1/3 214/1/3 215/1/3
f 219/1/3 218/1/3 217/1/3
f 220/1/3 218/1/3 219/1/3
f 223/1/3 222/1/3 221/1/3
f 224/1/3 222/1/3 223/1/3
f 225/1/3 222/1/3 224/1/3
f 226/1/3 222/1/3 225/1/3
f 231/5/3 230/5/3 229/5/3
f 233/1/3 228/1/3 227/1/3
f 234/1/3 228/1/3 233/1/3
f 235/5/3 232/5/3 231/5/3
f 235/5/3 231/5/3 229/5/3
f 236/5/3 232/5/3 235/5/3
f 239/1/3 238/1/3 237/1/3
f 240/1/3 238/1/3 239/1/3
f 243/1/3 242/1/3 241/1/3
f 244/1/3 242/1/3 243/1/3
f 247/5/3 246/5/3 245/5/3
f 248/5/3 246/5/3 247/5/3
f 251/1/3 250/1/3 249/1/3
f 252/1/3 250/1/3 251/1/3
f 253/1/3 251/1/3 249/1/3
f 254/1/3 251/1/3 253/1/3
f 255/5/3 254/5/3 253/5/3
f 256/5/3 254/5/3 255/5/3
f 257/5/3 254/5/3 256/5/3
f 258/5/3 254/5/3 257/5/3
f 266/1/3 260/1/3 259/1/3
f 267/1/3 260/1/3 266/1/3
f 269/1/3 266/1/3 265/1/3
f 269/1/3 268/1/3 267/1/3
f 269/1/3 267/1/3 266/1/3
f 270/1/3 268/1/3 269/1/3
f 271/6/3 262/6/3 261/6/3
f 271/6/3 263/6/3 262/6/3
f 272/6/3 263/6/3 271/6/3
f 273/6/3 265/6/3 264/6/3
f 274/1/3 269/1/3 265/1/3
f 274/6/3 265/6/3 273/6/3
f 275/1/3 269/1/3 274/1/3
f 276/1/3 269/1/3 275/1/3
f 277/1/3 269/1/3 276/1/3
f 278/1/3 276/1/3 275/1/3
f 279/1/3 276/1/3 278/1/3
f 282/5/3 281/5/3 280/5/3
f 283/5/3 281/5/3 282/5/3
f 284/5/4 285/5/4 286/5/4
f 286/5/4 285/5/4 287/5/4
f 288/1/4 289/1/4 290/1/4
f 290/1/4 289/1/4 291/1/4
f 288/1/4 290/1/4 292/1/4
f 292/1/4 290/1/4 293/1/4
f 292/5/4 293/5/4 294/5/4
f 294/5/4 293/5/4 295/5/4
f 295/5/4 293/5/4 296/5/4
f 296/5/4 293/5/4 297/5/4
f 298/5/4 299/5/4 300/5/4
f 300/5/4 299/5/4 301/5/4
f 302/1/4 303/1/4 304/1/4
f 304/1/4 303/1/4 305/1/4
f 306/1/4 307/1/4 308/1/4
f 308/1/4 307/1/4 309/1/4
f 312/5/4 313/5/4 314/5/4
f 310/1/4 311/1/4 316/1/4
f 316/1/4 311/1/4 317/1/4
f 314/5/4 315/5/4 318/5/4
f 312/5/4 314/5/4 318/5/4
f 318/5/4 315/5/4 319/5/4
f 320/1/4 321/1/4 322/1/4
f 322/1/4 321/1/4 323/1/4
f 323/1/4 321/1/4 324/1/4
f 324/1/4 321/1/4 325/1/4
f 326/1/4 327/1/4 328/1/4
f 328/1/4 327/1/4 329/1/4
f 330/1/4 331/1/4 332/1/4
f 332/1/4 331/1/4 333/1/4
f 334/4/4 335/4/4 336/4/4
f 336/4/4 335/4/4 337/4/4
f 338/1/4 339/1/4 344/1/4
f 344/1/4 339/1/4 345/1/4
f 343/1/4 344/1/4 347/1/4
f 345/1/4 346/1/4 347/1/4
f 344/1/4 345/1/4 347/1/4
f 347/1/4 346/1/4 348/1/4
f 342/6/4 343/6/4 349/6/4
f 340/6/4 341/6/4 349/6/4
f 341/6/4 342/6/4 349/6/4
f 343/1/4 347/1/4 350/1/4
f 349/6/4 343/6/4 350/6/4
f 350/1/4 347/1/4 351/1/4
f 351/1/4 347/1/4 352/1/4
f 352/1/4 347/1/4 353/1/4
f 351/1/4 352/1/4 354/1/4
f 354/1/4 352/1/4 355/1/4
f 356/1/4 357/1/4 358/1/4
f 358/1/4 357/1/4 359/1/4
f 356/1/4 358/1/4 360/1/4
f 360/1/4 358/1/4 361/1/4
f 360/5/4 361/5/4 362/5/4
f 362/5/4 361/5/4 363/5/4
f 366/4/5 365/4/5 364/4/5
f 367/4/5 365/4/5 366/4/5
f 370/6/5 369/6/5 368/6/5
f 371/6/5 369/6/5 370/6/5
f 374/1/5 373/1/5 372/1/5
f 375/1/5 373/1/5 374/1/5
f 378/1/5 377/1/5 376/1/5
f 379/1/5 377/1/5 378/1/5
f 380/1/5 378/1/5 376/1/5
f 381/1/5 377/1/5 379/1/5
f 382/1/5 380/1/5 376/1/5
f 382/1/5 381/1/5 380/1/5
f 383/1/5 377/1/5 381/1/5
f 383/1/5 381/1/5 382/1/5
f 386/1/5 385/1/5 384/1/5
f 387/1/5 385/1/5 386/1/5
f 388/1/5 386/1/5 384/1/5
f 389/1/5 385/1/5 387/1/5
f 390/1/5 388/1/5 384/1/5
f 390/1/5 389/1/5 388/1/5
f 391/1/5 385/1/5 389/1/5
f 391/1/5 389/1/5 390/1/5
f 395/5/5 394/5/5 393/5/5
f 396/5/5 394/5/5 395/5/5
f 397/1/5 393/1/5 392/1/5
f 398/5/5 395/5/5 393/5/5
f 398/1/5 393/1/5 397/1/5
f 399/5/5 395/5/5 398/5/5
f 403/5/5 402/5/5 401/5/5
f 404/5/5 403/5/5 401/5/5
f 405/5/5 404/5/5 401/5/5
f 407/1/5 401/1/5 400/1/5
f 408/5/5 405/5/5 401/5/5
f 408/1/5 401/1/5 407/1/5
f 408/5/5 406/5/5 405/5/5
f 409/5/5 406/5/5 408/5/5
f 412/5/5 411/5/5 410/5/5
f 413/5/5 411/5/5 412/5/5
f 416/5/5 415/5/5 414/5/5
f 417/5/5 415/5/5 416/5/5
f 420/5/5 419/5/5 418/5/5
f 421/5/5 419/5/5 420/5/5
f 424/1/5 423/1/5 422/1/5
f 425/1/5 423/1/5 424/1/5
f 426/1/5 424/1/5 422/1/5
f 428/1/5 426/1/5 422/1/5
f 428/1/5 427/1/5 426/1/5
f 429/1/5 427/1/5 428/1/5
f 432/5/5 431/5/5 430/5/5
f 433/5/5 431/5/5 432/5/5
f 436/1/5 435/1/5 434/1/5
f 437/1/5 435/1/5 436/1/5
f 440/1/5 439/1/5 438/1/5
f 441/1/5 439/1/5 440/1/5
f 446/1/5 443/1/5 442/1/5
f 447/1/5 443/1/5 446/1/5
f 448/1/5 445/1/5 444/1/5
f 449/1/5 445/1/5 448/1/5
f 450/4/6 451/4/6 452/4/6
f 452/4/6 451/4/6 453/4/6
f 454/1/6 455/1/6 456/1/6
f 456/1/6 455/1/6 457/1/6
f 459/5/6 460/5/6 461/5/6
f 461/5/6 460/5/6 462/5/6
f 459/5/6 461/5/6 463/5/6
f 458/1/6 459/1/6 465/1/6
f 463/5/6 464/5/6 466/5/6
f 465/1/6 459/1/6 466/1/6
f 459/5/6 463/5/6 466/5/6
f 466/5/6 464/5/6 467/5/6
f 469/5/6 470/5/6 471/5/6
f 471/5/6 470/5/6 472/5/6
f 469/5/6 471/5/6 473/5/6
f 469/5/6 473/5/6 474/5/6
f 468/1/6 469/1/6 476/1/6
f 469/5/6 474/5/6 477/5/6
f 476/1/6 469/1/6 477/1/6
f 474/5/6 475/5/6 477/5/6
f 477/5/6 475/5/6 478/5/6
f 479/1/6 480/1/6 481/1/6
f 481/1/6 480/1/6 482/1/6
f 483/1/6 484/1/6 485/1/6
f 485/1/6 484/1/6 486/1/6
f 487/5/6 488/5/6 489/5/6
f 489/5/6 488/5/6 490/5/6
f 491/1/6 492/1/6 493/1/6
f 493/1/6 492/1/6 494/1/6
f 495/1/6 496/1/6 497/1/6
f 497/1/6 496/1/6 498/1/6
f 495/1/6 497/1/6 499/1/6
f 498/1/6 496/1/6 500/1/6
f 495/1/6 499/1/6 501/1/6
f 499/1/6 500/1/6 501/1/6
f 500/1/6 496/1/6 502/1/6
f 501/1/6 500/1/6 502/1/6
f 503/1/6 504/1/6 505/1/6
f 505/1/6 504/1/6 506/1/6
f 503/1/6 505/1/6 507/1/6
f 506/1/6 504/1/6 508/1/6
f 503/1/6 507/1/6 509/1/6
f 507/1/6 508/1/6 509/1/6
f 508/1/6 504/1/6 510/1/6
f 509/1/6 508/1/6 510/1/6
f 511/1/6 512/1/6 515/1/6
f 515/1/6 512/1/6 516/1/6
f 513/1/6 514/1/6 517/1/6
f 517/1/6 514/1/6 518/1/6
f 519/1/6 520/1/6 521/1/6
f 521/1/6 520/1/6 522/1/6
f 523/1/6 524/1/6 525/1/6
f 525/1/6 524/1/6 526/1/6
