# MagicaVoxel @ Ephtracy

# group
o 

# material
mtllib muralla.mtl
usemtl palette

# normals
vn -1 0 0
vn 1 0 0
vn 0 0 1
vn 0 0 -1
vn 0 -1 0
vn 0 1 0

# texcoords
vt 0.787109 0.5
vt 0.791016 0.5
vt 0.794922 0.5

# verts
v 0.8 2 0
v 0.8 2 -4
v 0.8 2.5 -0.8
v 0.8 2.5 -1.1
v 0.8 2.6 -3.2
v 0.8 2.6 -3.5
v 0.8 2.8 -0.8
v 0.8 2.8 -1.1
v 0.8 2.8 -3.2
v 0.8 2.8 -3.5
v 0.8 3.1 -0.9
v 0.8 3.1 -1.3
v 0.8 3.1 -2
v 0.8 3.1 -2.3
v 0.8 3.3 -0.9
v 0.8 3.3 -1.3
v 0.8 3.3 -2
v 0.8 3.3 -2.3
v 0.8 3.6 -2
v 0.8 3.6 -2.1
v 0.8 3.7 -2
v 0.8 3.7 -2.1
v 0.8 3.7 -3.3
v 0.8 3.7 -3.6
v 0.8 4 -0.8
v 0.8 4 -1.2
v 0.8 4 -3.3
v 0.8 4 -3.6
v 0.8 4.3 -0.8
v 0.8 4.3 -1.2
v 0.8 4.5 -2.7
v 0.8 4.5 -3.1
v 0.8 4.6 -2
v 0.8 4.6 -2.5
v 0.8 4.7 -2.7
v 0.8 4.7 -3.1
v 0.8 4.8 -1.1
v 0.8 4.8 -1.5
v 0.8 4.9 -2
v 0.8 4.9 -2.5
v 0.8 5 -1.1
v 0.8 5 -1.5
v 0.8 5.1 0
v 0.8 5.1 -4
v 0.9 5.1 0
v 0.9 5.1 -4
v 0.9 5.3 0
v 0.9 5.3 -0.3
v 0.9 5.3 -0.8
v 0.9 5.3 -1.1
v 0.9 5.3 -1.2
v 0.9 5.3 -1.6
v 0.9 5.3 -1.9
v 0.9 5.3 -2.4
v 0.9 5.3 -2.7
v 0.9 5.3 -3.2
v 0.9 5.3 -3.5
v 0.9 5.3 -3.6
v 0.9 5.3 -3.9
v 0.9 5.5 -0.3
v 0.9 5.5 -0.8
v 0.9 5.5 -1.1
v 0.9 5.5 -1.2
v 0.9 5.5 -1.6
v 0.9 5.5 -1.9
v 0.9 5.5 -2.4
v 0.9 5.5 -2.7
v 0.9 5.5 -3.2
v 0.9 5.5 -3.5
v 0.9 5.5 -3.6
v 0.9 5.5 -3.9
v 0.9 5.5 -4
v 2.5 5.1 0
v 2.5 5.1 -4
v 2.5 5.2 0
v 2.5 5.2 -0.3
v 2.5 5.2 -0.8
v 2.5 5.2 -1.1
v 2.5 5.2 -1.6
v 2.5 5.2 -1.9
v 2.5 5.2 -2.4
v 2.5 5.2 -2.7
v 2.5 5.2 -3.2
v 2.5 5.2 -3.5
v 2.5 5.3 -3.5
v 2.5 5.3 -3.8
v 2.5 5.5 -0.3
v 2.5 5.5 -0.8
v 2.5 5.5 -1.1
v 2.5 5.5 -1.6
v 2.5 5.5 -1.9
v 2.5 5.5 -2.4
v 2.5 5.5 -2.7
v 2.5 5.5 -3.2
v 2.5 5.5 -3.5
v 2.5 5.5 -3.8
v 2.5 5.5 -4
v 2.6 5.2 0
v 2.6 5.2 -0.3
v 2.6 5.2 -0.8
v 2.6 5.2 -1.1
v 2.6 5.2 -1.6
v 2.6 5.2 -1.9
v 2.6 5.2 -2.4
v 2.6 5.2 -2.5
v 2.6 5.2 -2.7
v 2.6 5.2 -3.2
v 2.6 5.2 -3.5
v 2.6 5.3 0
v 2.6 5.3 -0.3
v 2.6 5.3 -0.8
v 2.6 5.3 -1.1
v 2.6 5.3 -1.6
v 2.6 5.3 -1.9
v 2.6 5.3 -2.4
v 2.6 5.3 -2.5
v 2.6 5.3 -2.7
v 2.6 5.3 -3.2
v 2.6 5.3 -3.5
v 1 5.2 0
v 1 5.2 -0.3
v 1 5.2 -0.8
v 1 5.2 -1.1
v 1 5.2 -1.6
v 1 5.2 -1.9
v 1 5.2 -2.4
v 1 5.2 -2.7
v 1 5.2 -3.2
v 1 5.2 -3.5
v 1 5.3 0
v 1 5.3 -0.3
v 1 5.3 -0.8
v 1 5.3 -1.1
v 1 5.3 -1.6
v 1 5.3 -1.9
v 1 5.3 -2.4
v 1 5.3 -2.7
v 1 5.3 -3.2
v 1 5.3 -3.5
v 1.1 5.1 0
v 1.1 5.1 -4
v 1.1 5.2 0
v 1.1 5.2 -0.3
v 1.1 5.2 -0.8
v 1.1 5.2 -1.1
v 1.1 5.2 -1.6
v 1.1 5.2 -1.9
v 1.1 5.2 -2.4
v 1.1 5.2 -2.7
v 1.1 5.2 -3.2
v 1.1 5.2 -3.5
v 1.1 5.3 -1.2
v 1.1 5.3 -1.6
v 1.1 5.3 -3.6
v 1.1 5.3 -3.9
v 1.1 5.5 -0.3
v 1.1 5.5 -0.8
v 1.1 5.5 -1.1
v 1.1 5.5 -1.2
v 1.1 5.5 -1.6
v 1.1 5.5 -1.9
v 1.1 5.5 -2.4
v 1.1 5.5 -2.7
v 1.1 5.5 -3.2
v 1.1 5.5 -3.5
v 1.1 5.5 -3.6
v 1.1 5.5 -3.9
v 1.1 5.5 -4
v 2.7 5.1 0
v 2.7 5.1 -2.2
v 2.7 5.1 -2.5
v 2.7 5.1 -4
v 2.7 5.3 0
v 2.7 5.3 -0.3
v 2.7 5.3 -0.8
v 2.7 5.3 -1.1
v 2.7 5.3 -1.3
v 2.7 5.3 -1.6
v 2.7 5.3 -1.9
v 2.7 5.3 -2.2
v 2.7 5.3 -2.4
v 2.7 5.3 -2.5
v 2.7 5.3 -2.7
v 2.7 5.3 -3.2
v 2.7 5.3 -3.5
v 2.7 5.3 -3.8
v 2.7 5.5 -0.3
v 2.7 5.5 -0.8
v 2.7 5.5 -1.1
v 2.7 5.5 -1.3
v 2.7 5.5 -1.6
v 2.7 5.5 -1.9
v 2.7 5.5 -2.4
v 2.7 5.5 -2.7
v 2.7 5.5 -3.2
v 2.7 5.5 -3.5
v 2.7 5.5 -3.8
v 2.7 5.5 -4
v 2.8 2 0
v 2.8 2 -4
v 2.8 2.8 -0.1
v 2.8 2.8 -0.4
v 2.8 2.9 -2.6
v 2.8 2.9 -3
v 2.8 3 -0.1
v 2.8 3 -0.4
v 2.8 3 -1
v 2.8 3 -1.5
v 2.8 3.1 -2.6
v 2.8 3.1 -3
v 2.8 3.2 -1
v 2.8 3.2 -1.5
v 2.8 4 -0.8
v 2.8 4 -1.1
v 2.8 4 -2.5
v 2.8 4 -2.8
v 2.8 4 -2.9
v 2.8 4.1 -2.8
v 2.8 4.1 -2.9
v 2.8 4.2 -0.8
v 2.8 4.2 -1.1
v 2.8 4.2 -2.5
v 2.8 4.2 -2.8
v 2.8 4.2 -3.5
v 2.8 4.2 -3.8
v 2.8 4.3 -0.8
v 2.8 4.3 -1.2
v 2.8 4.4 -3.5
v 2.8 4.4 -3.8
v 2.8 4.5 0
v 2.8 4.5 -0.3
v 2.8 4.5 -0.8
v 2.8 4.5 -1.2
v 2.8 4.5 -1.8
v 2.8 4.5 -2.1
v 2.8 4.7 0
v 2.8 4.7 -0.3
v 2.8 4.7 -1.8
v 2.8 4.7 -2.1
v 2.8 4.7 -3.3
v 2.8 4.7 -3.7
v 2.8 4.9 -3.3
v 2.8 4.9 -3.7
v 2.8 5.1 0
v 2.8 5.1 -4
v 0.8 2 0
v 0.8 5.1 0
v 0.9 5.1 0
v 0.9 5.3 0
v 1 5.2 0
v 1 5.3 0
v 1.1 5.1 0
v 1.1 5.2 0
v 2.5 5.1 0
v 2.5 5.2 0
v 2.6 5.2 0
v 2.6 5.3 0
v 2.7 4.5 0
v 2.7 4.7 0
v 2.7 5.1 0
v 2.7 5.3 0
v 2.8 2 0
v 2.8 4.5 0
v 2.8 4.7 0
v 2.8 5.1 0
v 0.9 5.3 -0.3
v 0.9 5.5 -0.3
v 1 5.2 -0.3
v 1 5.3 -0.3
v 1.1 5.2 -0.3
v 1.1 5.5 -0.3
v 2.5 5.2 -0.3
v 2.5 5.5 -0.3
v 2.6 5.2 -0.3
v 2.6 5.3 -0.3
v 2.7 5.3 -0.3
v 2.7 5.5 -0.3
v 0.9 5.3 -1.1
v 0.9 5.5 -1.1
v 1 5.2 -1.1
v 1 5.3 -1.1
v 1.1 5.2 -1.1
v 1.1 5.5 -1.1
v 2.5 5.2 -1.1
v 2.5 5.5 -1.1
v 2.6 5.2 -1.1
v 2.6 5.3 -1.1
v 2.6 5.5 -1.1
v 2.7 5.3 -1.1
v 2.7 5.5 -1.1
v 0.9 5.3 -1.9
v 0.9 5.5 -1.9
v 1 5.2 -1.9
v 1 5.3 -1.9
v 1.1 5.2 -1.9
v 1.1 5.5 -1.9
v 2.5 5.2 -1.9
v 2.5 5.5 -1.9
v 2.6 5.2 -1.9
v 2.6 5.3 -1.9
v 2.7 5.3 -1.9
v 2.7 5.5 -1.9
v 0.9 5.3 -2.7
v 0.9 5.5 -2.7
v 1 5.2 -2.7
v 1 5.3 -2.7
v 1.1 5.2 -2.7
v 1.1 5.5 -2.7
v 2.5 5.2 -2.7
v 2.5 5.5 -2.7
v 2.6 5.2 -2.7
v 2.6 5.3 -2.7
v 2.7 5.3 -2.7
v 2.7 5.5 -2.7
v 0.9 5.3 -3.5
v 0.9 5.5 -3.5
v 1 5.2 -3.5
v 1 5.3 -3.5
v 1.1 5.2 -3.5
v 1.1 5.5 -3.5
v 2.5 5.2 -3.5
v 2.5 5.3 -3.5
v 2.5 5.5 -3.5
v 2.6 5.2 -3.5
v 2.6 5.3 -3.5
v 2.7 5.3 -3.5
v 2.7 5.5 -3.5
v 0.9 5.3 -0.8
v 0.9 5.5 -0.8
v 1 5.2 -0.8
v 1 5.3 -0.8
v 1.1 5.2 -0.8
v 1.1 5.5 -0.8
v 2.5 5.2 -0.8
v 2.5 5.5 -0.8
v 2.6 5.2 -0.8
v 2.6 5.3 -0.8
v 2.7 5.3 -0.8
v 2.7 5.5 -0.8
v 0.9 5.3 -1.6
v 0.9 5.5 -1.6
v 1 5.2 -1.6
v 1 5.3 -1.6
v 1.1 5.2 -1.6
v 1.1 5.3 -1.6
v 1.1 5.5 -1.6
v 2.5 5.2 -1.6
v 2.5 5.5 -1.6
v 2.6 5.2 -1.6
v 2.6 5.3 -1.6
v 2.7 5.3 -1.6
v 2.7 5.5 -1.6
v 0.9 5.3 -2.4
v 0.9 5.5 -2.4
v 1 5.2 -2.4
v 1 5.3 -2.4
v 1.1 5.2 -2.4
v 1.1 5.5 -2.4
v 2.5 5.2 -2.4
v 2.5 5.5 -2.4
v 2.6 5.2 -2.4
v 2.6 5.3 -2.4
v 2.7 5.3 -2.4
v 2.7 5.5 -2.4
v 0.9 5.3 -3.2
v 0.9 5.5 -3.2
v 1 5.2 -3.2
v 1 5.3 -3.2
v 1.1 5.2 -3.2
v 1.1 5.5 -3.2
v 2.5 5.2 -3.2
v 2.5 5.5 -3.2
v 2.6 5.2 -3.2
v 2.6 5.3 -3.2
v 2.7 5.3 -3.2
v 2.7 5.5 -3.2
v 0.8 2 -4
v 0.8 5.1 -4
v 0.9 5.1 -4
v 0.9 5.5 -4
v 1.1 5.1 -4
v 1.1 5.5 -4
v 2.5 5.1 -4
v 2.5 5.5 -4
v 2.7 5.1 -4
v 2.7 5.5 -4
v 2.8 2 -4
v 2.8 5.1 -4
v 0.8 2 0
v 2.8 2 0
v 0.8 2 -4
v 2.8 2 -4
v 0.8 5.1 0
v 0.9 5.1 0
v 1.1 5.1 0
v 2.5 5.1 0
v 2.7 5.1 0
v 2.8 5.1 0
v 1.2 5.1 -0.1
v 1.7 5.1 -0.1
v 1.9 5.1 -0.1
v 2.4 5.1 -0.1
v 1.2 5.1 -0.9
v 1.7 5.1 -0.9
v 1.9 5.1 -0.9
v 2.4 5.1 -0.9
v 1.2 5.1 -1.1
v 1.7 5.1 -1.1
v 1.9 5.1 -1.1
v 2.4 5.1 -1.1
v 1.2 5.1 -2
v 1.7 5.1 -2
v 1.9 5.1 -2
v 2.4 5.1 -2
v 1.2 5.1 -2.2
v 1.7 5.1 -2.2
v 1.9 5.1 -2.2
v 2.4 5.1 -2.2
v 2.7 5.1 -2.2
v 2.7 5.1 -2.5
v 1.2 5.1 -3.1
v 1.7 5.1 -3.1
v 1.9 5.1 -3.1
v 2.4 5.1 -3.1
v 1.2 5.1 -3.4
v 1.7 5.1 -3.4
v 1.9 5.1 -3.4
v 2.4 5.1 -3.4
v 1.2 5.1 -3.9
v 1.7 5.1 -3.9
v 1.9 5.1 -3.9
v 2.4 5.1 -3.9
v 0.8 5.1 -4
v 0.9 5.1 -4
v 1.1 5.1 -4
v 2.5 5.1 -4
v 2.7 5.1 -4
v 2.8 5.1 -4
v 1 5.2 0
v 1.1 5.2 0
v 2.5 5.2 0
v 2.6 5.2 0
v 1 5.2 -0.3
v 1.1 5.2 -0.3
v 2.5 5.2 -0.3
v 2.6 5.2 -0.3
v 1 5.2 -0.8
v 1.1 5.2 -0.8
v 2.5 5.2 -0.8
v 2.6 5.2 -0.8
v 1 5.2 -1.1
v 1.1 5.2 -1.1
v 2.5 5.2 -1.1
v 2.6 5.2 -1.1
v 1 5.2 -1.6
v 1.1 5.2 -1.6
v 2.5 5.2 -1.6
v 2.6 5.2 -1.6
v 1 5.2 -1.9
v 1.1 5.2 -1.9
v 2.5 5.2 -1.9
v 2.6 5.2 -1.9
v 1 5.2 -2.4
v 1.1 5.2 -2.4
v 2.5 5.2 -2.4
v 2.6 5.2 -2.4
v 2.6 5.2 -2.5
v 1 5.2 -2.7
v 1.1 5.2 -2.7
v 2.5 5.2 -2.7
v 2.6 5.2 -2.7
v 1 5.2 -3.2
v 1.1 5.2 -3.2
v 2.5 5.2 -3.2
v 2.6 5.2 -3.2
v 1 5.2 -3.5
v 1.1 5.2 -3.5
v 2.5 5.2 -3.5
v 2.6 5.2 -3.5
v 0.9 5.3 0
v 1 5.3 0
v 2.6 5.3 0
v 2.7 5.3 0
v 0.9 5.3 -0.3
v 1 5.3 -0.3
v 2.6 5.3 -0.3
v 2.7 5.3 -0.3
v 0.9 5.3 -0.8
v 1 5.3 -0.8
v 2.6 5.3 -0.8
v 2.7 5.3 -0.8
v 0.9 5.3 -1.1
v 1 5.3 -1.1
v 2.6 5.3 -1.1
v 2.7 5.3 -1.1
v 0.9 5.3 -1.6
v 1 5.3 -1.6
v 2.6 5.3 -1.6
v 2.7 5.3 -1.6
v 0.9 5.3 -1.9
v 1 5.3 -1.9
v 2.6 5.3 -1.9
v 2.7 5.3 -1.9
v 0.9 5.3 -2.4
v 1 5.3 -2.4
v 2.6 5.3 -2.4
v 2.7 5.3 -2.4
v 2.6 5.3 -2.5
v 2.7 5.3 -2.5
v 0.9 5.3 -2.7
v 1 5.3 -2.7
v 2.6 5.3 -2.7
v 2.7 5.3 -2.7
v 0.9 5.3 -3.2
v 1 5.3 -3.2
v 2.6 5.3 -3.2
v 2.7 5.3 -3.2
v 0.9 5.3 -3.5
v 1 5.3 -3.5
v 2.6 5.3 -3.5
v 2.7 5.3 -3.5
v 0.9 5.5 -0.3
v 1.1 5.5 -0.3
v 2.5 5.5 -0.3
v 2.7 5.5 -0.3
v 0.9 5.5 -0.8
v 1.1 5.5 -0.8
v 2.5 5.5 -0.8
v 2.7 5.5 -0.8
v 0.9 5.5 -1.1
v 1.1 5.5 -1.1
v 2.5 5.5 -1.1
v 2.6 5.5 -1.1
v 2.7 5.5 -1.1
v 0.9 5.5 -1.2
v 1.1 5.5 -1.2
v 2.6 5.5 -1.3
v 2.7 5.5 -1.3
v 0.9 5.5 -1.6
v 1.1 5.5 -1.6
v 2.5 5.5 -1.6
v 2.7 5.5 -1.6
v 0.9 5.5 -1.9
v 1.1 5.5 -1.9
v 2.5 5.5 -1.9
v 2.7 5.5 -1.9
v 0.9 5.5 -2.4
v 1.1 5.5 -2.4
v 2.5 5.5 -2.4
v 2.7 5.5 -2.4
v 0.9 5.5 -2.7
v 1.1 5.5 -2.7
v 2.5 5.5 -2.7
v 2.7 5.5 -2.7
v 0.9 5.5 -3.2
v 1.1 5.5 -3.2
v 2.5 5.5 -3.2
v 2.7 5.5 -3.2
v 0.9 5.5 -3.5
v 1.1 5.5 -3.5
v 2.5 5.5 -3.5
v 2.7 5.5 -3.5
v 0.9 5.5 -3.6
v 1.1 5.5 -3.6
v 2.5 5.5 -3.8
v 2.7 5.5 -3.8
v 0.9 5.5 -3.9
v 1.1 5.5 -3.9
v 0.9 5.5 -4
v 1.1 5.5 -4
v 2.5 5.5 -4
v 2.7 5.5 -4

# faces
f 3/2/1 2/2/1 1/2/1
f 4/2/1 2/2/1 3/2/1
f 5/2/1 2/2/1 4/2/1
f 6/2/1 2/2/1 5/2/1
f 7/2/1 3/2/1 1/2/1
f 7/3/1 4/3/1 3/3/1
f 8/2/1 5/2/1 4/2/1
f 8/3/1 4/3/1 7/3/1
f 9/1/1 6/1/1 5/1/1
f 9/2/1 5/2/1 8/2/1
f 10/2/1 2/2/1 6/2/1
f 10/1/1 6/1/1 9/1/1
f 11/2/1 9/2/1 8/2/1
f 11/2/1 8/2/1 7/2/1
f 11/2/1 10/2/1 9/2/1
f 12/2/1 10/2/1 11/2/1
f 13/2/1 10/2/1 12/2/1
f 14/2/1 10/2/1 13/2/1
f 15/2/1 11/2/1 7/2/1
f 15/3/1 12/3/1 11/3/1
f 16/2/1 13/2/1 12/2/1
f 16/3/1 12/3/1 15/3/1
f 17/1/1 14/1/1 13/1/1
f 17/2/1 13/2/1 16/2/1
f 18/2/1 10/2/1 14/2/1
f 18/1/1 14/1/1 17/1/1
f 19/2/1 17/2/1 16/2/1
f 19/2/1 16/2/1 15/2/1
f 19/2/1 18/2/1 17/2/1
f 20/2/1 18/2/1 19/2/1
f 21/2/1 19/2/1 15/2/1
f 21/1/1 20/1/1 19/1/1
f 22/2/1 18/2/1 20/2/1
f 22/1/1 20/1/1 21/1/1
f 23/2/1 10/2/1 18/2/1
f 23/2/1 18/2/1 22/2/1
f 24/2/1 2/2/1 10/2/1
f 24/2/1 10/2/1 23/2/1
f 25/2/1 23/2/1 22/2/1
f 25/2/1 7/2/1 1/2/1
f 25/2/1 22/2/1 21/2/1
f 25/2/1 21/2/1 15/2/1
f 25/2/1 15/2/1 7/2/1
f 26/2/1 23/2/1 25/2/1
f 27/3/1 24/3/1 23/3/1
f 27/2/1 23/2/1 26/2/1
f 28/2/1 2/2/1 24/2/1
f 28/3/1 24/3/1 27/3/1
f 29/1/1 26/1/1 25/1/1
f 29/2/1 25/2/1 1/2/1
f 30/2/1 27/2/1 26/2/1
f 30/1/1 26/1/1 29/1/1
f 30/2/1 28/2/1 27/2/1
f 31/2/1 30/2/1 29/2/1
f 31/2/1 28/2/1 30/2/1
f 32/2/1 28/2/1 31/2/1
f 33/2/1 31/2/1 29/2/1
f 34/2/1 31/2/1 33/2/1
f 35/1/1 32/1/1 31/1/1
f 35/2/1 31/2/1 34/2/1
f 36/2/1 28/2/1 32/2/1
f 36/1/1 32/1/1 35/1/1
f 37/2/1 33/2/1 29/2/1
f 38/2/1 33/2/1 37/2/1
f 39/3/1 34/3/1 33/3/1
f 39/2/1 33/2/1 38/2/1
f 40/2/1 35/2/1 34/2/1
f 40/3/1 34/3/1 39/3/1
f 40/2/1 36/2/1 35/2/1
f 41/1/1 38/1/1 37/1/1
f 41/2/1 37/2/1 29/2/1
f 42/2/1 39/2/1 38/2/1
f 42/1/1 38/1/1 41/1/1
f 42/2/1 40/2/1 39/2/1
f 43/2/1 29/2/1 1/2/1
f 43/2/1 41/2/1 29/2/1
f 43/2/1 42/2/1 41/2/1
f 44/2/1 40/2/1 42/2/1
f 44/2/1 42/2/1 43/2/1
f 44/2/1 2/2/1 28/2/1
f 44/2/1 36/2/1 40/2/1
f 44/2/1 28/2/1 36/2/1
f 47/2/1 46/2/1 45/2/1
f 48/2/1 46/2/1 47/2/1
f 49/2/1 46/2/1 48/2/1
f 50/2/1 46/2/1 49/2/1
f 51/2/1 46/2/1 50/2/1
f 52/2/1 46/2/1 51/2/1
f 53/2/1 46/2/1 52/2/1
f 54/2/1 46/2/1 53/2/1
f 55/2/1 46/2/1 54/2/1
f 56/2/1 46/2/1 55/2/1
f 57/2/1 46/2/1 56/2/1
f 58/2/1 46/2/1 57/2/1
f 59/2/1 46/2/1 58/2/1
f 60/2/1 49/2/1 48/2/1
f 61/2/1 49/2/1 60/2/1
f 62/2/1 51/2/1 50/2/1
f 63/1/1 52/1/1 51/1/1
f 63/2/1 51/2/1 62/2/1
f 64/1/1 52/1/1 63/1/1
f 65/2/1 54/2/1 53/2/1
f 66/2/1 54/2/1 65/2/1
f 67/2/1 56/2/1 55/2/1
f 68/2/1 56/2/1 67/2/1
f 69/2/1 58/2/1 57/2/1
f 70/3/1 59/3/1 58/3/1
f 70/2/1 58/2/1 69/2/1
f 71/2/1 46/2/1 59/2/1
f 71/3/1 59/3/1 70/3/1
f 72/2/1 46/2/1 71/2/1
f 75/2/1 74/2/1 73/2/1
f 76/2/1 74/2/1 75/2/1
f 77/2/1 74/2/1 76/2/1
f 78/2/1 74/2/1 77/2/1
f 79/2/1 74/2/1 78/2/1
f 80/2/1 74/2/1 79/2/1
f 81/2/1 74/2/1 80/2/1
f 82/2/1 74/2/1 81/2/1
f 83/2/1 74/2/1 82/2/1
f 84/2/1 74/2/1 83/2/1
f 85/2/1 74/2/1 84/2/1
f 86/2/1 74/2/1 85/2/1
f 87/2/1 77/2/1 76/2/1
f 88/2/1 77/2/1 87/2/1
f 89/2/1 79/2/1 78/2/1
f 90/2/1 79/2/1 89/2/1
f 91/2/1 81/2/1 80/2/1
f 92/2/1 81/2/1 91/2/1
f 93/2/1 83/2/1 82/2/1
f 94/2/1 83/2/1 93/2/1
f 95/3/1 86/3/1 85/3/1
f 96/2/1 74/2/1 86/2/1
f 96/3/1 86/3/1 95/3/1
f 97/2/1 74/2/1 96/2/1
f 109/2/1 99/2/1 98/2/1
f 110/2/1 99/2/1 109/2/1
f 111/2/1 101/2/1 100/2/1
f 112/2/1 101/2/1 111/2/1
f 113/2/1 103/2/1 102/2/1
f 114/2/1 103/2/1 113/2/1
f 115/1/1 105/1/1 104/1/1
f 116/2/1 106/2/1 105/2/1
f 116/1/1 105/1/1 115/1/1
f 117/2/1 106/2/1 116/2/1
f 118/2/1 108/2/1 107/2/1
f 119/2/1 108/2/1 118/2/1
f 120/2/2 121/2/2 130/2/2
f 130/2/2 121/2/2 131/2/2
f 122/2/2 123/2/2 132/2/2
f 132/2/2 123/2/2 133/2/2
f 124/2/2 125/2/2 134/2/2
f 134/2/2 125/2/2 135/2/2
f 126/2/2 127/2/2 136/2/2
f 136/2/2 127/2/2 137/2/2
f 128/2/2 129/2/2 138/2/2
f 138/2/2 129/2/2 139/2/2
f 140/2/2 141/2/2 142/2/2
f 142/2/2 141/2/2 143/2/2
f 143/2/2 141/2/2 144/2/2
f 144/2/2 141/2/2 145/2/2
f 145/2/2 141/2/2 146/2/2
f 146/2/2 141/2/2 147/2/2
f 147/2/2 141/2/2 148/2/2
f 148/2/2 141/2/2 149/2/2
f 149/2/2 141/2/2 150/2/2
f 150/2/2 141/2/2 151/2/2
f 145/2/2 146/2/2 152/2/2
f 152/2/2 146/2/2 153/2/2
f 151/2/2 141/2/2 154/2/2
f 154/2/2 141/2/2 155/2/2
f 143/2/2 144/2/2 156/2/2
f 156/2/2 144/2/2 157/2/2
f 145/2/2 152/2/2 158/2/2
f 152/1/2 153/1/2 159/1/2
f 158/2/2 152/2/2 159/2/2
f 159/1/2 153/1/2 160/1/2
f 147/2/2 148/2/2 161/2/2
f 161/2/2 148/2/2 162/2/2
f 149/2/2 150/2/2 163/2/2
f 163/2/2 150/2/2 164/2/2
f 151/2/2 154/2/2 165/2/2
f 154/3/2 155/3/2 166/3/2
f 165/2/2 154/2/2 166/2/2
f 155/2/2 141/2/2 167/2/2
f 166/3/2 155/3/2 167/3/2
f 167/2/2 141/2/2 168/2/2
f 169/2/2 170/2/2 173/2/2
f 173/2/2 170/2/2 174/2/2
f 174/2/2 170/2/2 175/2/2
f 175/2/2 170/2/2 176/2/2
f 176/2/2 170/2/2 177/2/2
f 177/2/2 170/2/2 178/2/2
f 178/2/2 170/2/2 179/2/2
f 170/1/2 171/1/2 180/1/2
f 179/2/2 170/2/2 180/2/2
f 180/1/2 171/1/2 181/1/2
f 171/2/2 172/2/2 182/2/2
f 181/1/2 171/1/2 182/1/2
f 182/2/2 172/2/2 183/2/2
f 183/2/2 172/2/2 184/2/2
f 184/2/2 172/2/2 185/2/2
f 185/2/2 172/2/2 186/2/2
f 174/2/2 175/2/2 187/2/2
f 187/2/2 175/2/2 188/2/2
f 176/1/2 177/1/2 189/1/2
f 177/2/2 178/2/2 190/2/2
f 189/1/2 177/1/2 190/1/2
f 190/2/2 178/2/2 191/2/2
f 180/2/2 181/2/2 192/2/2
f 179/2/2 180/2/2 192/2/2
f 192/2/2 181/2/2 193/2/2
f 183/2/2 184/2/2 194/2/2
f 194/2/2 184/2/2 195/2/2
f 185/3/2 186/3/2 196/3/2
f 186/2/2 172/2/2 197/2/2
f 196/3/2 186/3/2 197/3/2
f 197/2/2 172/2/2 198/2/2
f 199/2/2 200/2/2 201/2/2
f 201/2/2 200/2/2 202/2/2
f 202/2/2 200/2/2 203/2/2
f 203/2/2 200/2/2 204/2/2
f 199/2/2 201/2/2 205/2/2
f 201/3/2 202/3/2 205/3/2
f 202/2/2 203/2/2 206/2/2
f 205/3/2 202/3/2 206/3/2
f 206/2/2 203/2/2 207/2/2
f 207/2/2 203/2/2 208/2/2
f 203/1/2 204/1/2 209/1/2
f 208/2/2 203/2/2 209/2/2
f 204/2/2 200/2/2 210/2/2
f 209/1/2 204/1/2 210/1/2
f 207/1/2 208/1/2 211/1/2
f 205/2/2 206/2/2 211/2/2
f 206/2/2 207/2/2 211/2/2
f 208/2/2 209/2/2 212/2/2
f 211/1/2 208/1/2 212/1/2
f 209/2/2 210/2/2 212/2/2
f 205/2/2 211/2/2 213/2/2
f 211/2/2 212/2/2 213/2/2
f 213/2/2 212/2/2 214/2/2
f 212/2/2 210/2/2 215/2/2
f 214/2/2 212/2/2 215/2/2
f 215/2/2 210/2/2 216/2/2
f 216/2/2 210/2/2 217/2/2
f 215/3/2 216/3/2 218/3/2
f 216/1/2 217/1/2 218/1/2
f 217/2/2 210/2/2 219/2/2
f 218/1/2 217/1/2 219/1/2
f 213/1/2 214/1/2 220/1/2
f 205/2/2 213/2/2 220/2/2
f 214/2/2 215/2/2 221/2/2
f 220/1/2 214/1/2 221/1/2
f 215/3/2 218/3/2 222/3/2
f 221/2/2 215/2/2 222/2/2
f 218/2/2 219/2/2 223/2/2
f 222/3/2 218/3/2 223/3/2
f 219/2/2 210/2/2 224/2/2
f 223/2/2 219/2/2 224/2/2
f 210/2/2 200/2/2 224/2/2
f 224/2/2 200/2/2 225/2/2
f 222/2/2 223/2/2 226/2/2
f 220/2/2 221/2/2 226/2/2
f 221/2/2 222/2/2 226/2/2
f 223/2/2 224/2/2 226/2/2
f 205/2/2 220/2/2 226/2/2
f 226/2/2 224/2/2 227/2/2
f 224/1/2 225/1/2 228/1/2
f 227/2/2 224/2/2 228/2/2
f 225/2/2 200/2/2 229/2/2
f 228/1/2 225/1/2 229/1/2
f 199/2/2 205/2/2 230/2/2
f 205/2/2 226/2/2 230/2/2
f 230/2/2 226/2/2 231/2/2
f 226/3/2 227/3/2 232/3/2
f 231/2/2 226/2/2 232/2/2
f 227/2/2 228/2/2 233/2/2
f 232/3/2 227/3/2 233/3/2
f 228/2/2 229/2/2 233/2/2
f 233/2/2 229/2/2 234/2/2
f 234/2/2 229/2/2 235/2/2
f 230/1/2 231/1/2 236/1/2
f 231/2/2 232/2/2 237/2/2
f 236/1/2 231/1/2 237/1/2
f 232/2/2 233/2/2 237/2/2
f 233/2/2 234/2/2 237/2/2
f 234/1/2 235/1/2 238/1/2
f 237/2/2 234/2/2 238/2/2
f 235/2/2 229/2/2 239/2/2
f 238/1/2 235/1/2 239/1/2
f 239/2/2 229/2/2 240/2/2
f 240/2/2 229/2/2 241/2/2
f 237/2/2 238/2/2 242/2/2
f 236/2/2 237/2/2 242/2/2
f 240/3/2 241/3/2 242/3/2
f 239/2/2 240/2/2 242/2/2
f 238/2/2 239/2/2 242/2/2
f 241/2/2 229/2/2 243/2/2
f 242/3/2 241/3/2 243/3/2
f 236/2/2 242/2/2 244/2/2
f 242/2/2 243/2/2 244/2/2
f 243/2/2 229/2/2 245/2/2
f 244/2/2 243/2/2 245/2/2
f 229/2/2 200/2/2 245/2/2
f 248/2/3 247/2/3 246/2/3
f 250/2/3 249/2/3 248/2/3
f 251/2/3 249/2/3 250/2/3
f 252/2/3 248/2/3 246/2/3
f 252/2/3 250/2/3 248/2/3
f 253/2/3 250/2/3 252/2/3
f 254/2/3 252/2/3 246/2/3
f 256/2/3 255/2/3 254/2/3
f 258/2/3 256/2/3 254/2/3
f 258/2/3 257/2/3 256/2/3
f 258/2/3 254/2/3 246/2/3
f 259/2/3 257/2/3 258/2/3
f 260/2/3 257/2/3 259/2/3
f 261/2/3 257/2/3 260/2/3
f 262/2/3 258/2/3 246/2/3
f 263/1/3 259/1/3 258/1/3
f 263/2/3 258/2/3 262/2/3
f 264/2/3 260/2/3 259/2/3
f 264/1/3 259/1/3 263/1/3
f 265/2/3 260/2/3 264/2/3
f 269/2/3 267/2/3 266/2/3
f 270/2/3 269/2/3 268/2/3
f 271/2/3 267/2/3 269/2/3
f 271/2/3 269/2/3 270/2/3
f 274/2/3 273/2/3 272/2/3
f 275/2/3 273/2/3 274/2/3
f 276/2/3 273/2/3 275/2/3
f 277/2/3 273/2/3 276/2/3
f 281/2/3 279/2/3 278/2/3
f 282/2/3 281/2/3 280/2/3
f 283/2/3 279/2/3 281/2/3
f 283/2/3 281/2/3 282/2/3
f 286/2/3 285/2/3 284/2/3
f 287/2/3 285/2/3 286/2/3
f 288/2/3 285/2/3 287/2/3
f 289/1/3 288/1/3 287/1/3
f 290/1/3 288/1/3 289/1/3
f 294/2/3 292/2/3 291/2/3
f 295/2/3 294/2/3 293/2/3
f 296/2/3 292/2/3 294/2/3
f 296/2/3 294/2/3 295/2/3
f 299/2/3 298/2/3 297/2/3
f 300/2/3 298/2/3 299/2/3
f 301/2/3 298/2/3 300/2/3
f 302/2/3 298/2/3 301/2/3
f 306/2/3 304/2/3 303/2/3
f 307/2/3 306/2/3 305/2/3
f 308/2/3 304/2/3 306/2/3
f 308/2/3 306/2/3 307/2/3
f 311/2/3 310/2/3 309/2/3
f 312/2/3 310/2/3 311/2/3
f 313/2/3 310/2/3 312/2/3
f 314/2/3 310/2/3 313/2/3
f 318/2/3 316/2/3 315/2/3
f 319/2/3 318/2/3 317/2/3
f 320/2/3 316/2/3 318/2/3
f 320/2/3 318/2/3 319/2/3
f 324/2/3 322/2/3 321/2/3
f 325/3/3 323/3/3 322/3/3
f 325/2/3 322/2/3 324/2/3
f 326/3/3 323/3/3 325/3/3
f 327/3/3 323/3/3 326/3/3
f 328/2/4 329/2/4 331/2/4
f 330/2/4 331/2/4 332/2/4
f 331/2/4 329/2/4 333/2/4
f 332/2/4 331/2/4 333/2/4
f 334/2/4 335/2/4 336/2/4
f 336/2/4 335/2/4 337/2/4
f 337/2/4 335/2/4 338/2/4
f 338/2/4 335/2/4 339/2/4
f 340/1/4 341/1/4 343/1/4
f 342/2/4 343/2/4 344/2/4
f 343/1/4 341/1/4 345/1/4
f 344/2/4 343/2/4 345/2/4
f 345/1/4 341/1/4 346/1/4
f 347/2/4 348/2/4 349/2/4
f 349/2/4 348/2/4 350/2/4
f 350/2/4 348/2/4 351/2/4
f 351/2/4 348/2/4 352/2/4
f 353/2/4 354/2/4 356/2/4
f 355/2/4 356/2/4 357/2/4
f 356/2/4 354/2/4 358/2/4
f 357/2/4 356/2/4 358/2/4
f 359/2/4 360/2/4 361/2/4
f 361/2/4 360/2/4 362/2/4
f 362/2/4 360/2/4 363/2/4
f 363/2/4 360/2/4 364/2/4
f 365/2/4 366/2/4 368/2/4
f 367/2/4 368/2/4 369/2/4
f 368/2/4 366/2/4 370/2/4
f 369/2/4 368/2/4 370/2/4
f 371/2/4 372/2/4 373/2/4
f 373/2/4 372/2/4 374/2/4
f 374/2/4 372/2/4 375/2/4
f 375/2/4 372/2/4 376/2/4
f 377/2/4 378/2/4 379/2/4
f 377/2/4 379/2/4 381/2/4
f 379/2/4 380/2/4 381/2/4
f 381/2/4 380/2/4 382/2/4
f 377/2/4 381/2/4 383/2/4
f 377/2/4 383/2/4 385/2/4
f 383/2/4 384/2/4 385/2/4
f 385/2/4 384/2/4 386/2/4
f 377/2/4 385/2/4 387/2/4
f 387/2/4 385/2/4 388/2/4
f 391/2/5 390/2/5 389/2/5
f 392/2/5 390/2/5 391/2/5
f 395/2/6 396/2/6 399/2/6
f 399/2/6 396/2/6 400/2/6
f 400/2/6 396/2/6 401/2/6
f 401/2/6 396/2/6 402/2/6
f 395/2/6 399/2/6 403/2/6
f 399/1/6 400/1/6 403/1/6
f 400/2/6 401/2/6 404/2/6
f 403/1/6 400/1/6 404/1/6
f 401/1/6 402/1/6 405/1/6
f 404/2/6 401/2/6 405/2/6
f 402/2/6 396/2/6 406/2/6
f 405/1/6 402/1/6 406/1/6
f 404/2/6 405/2/6 407/2/6
f 403/2/6 404/2/6 407/2/6
f 405/2/6 406/2/6 407/2/6
f 395/2/6 403/2/6 407/2/6
f 407/2/6 406/2/6 408/2/6
f 408/2/6 406/2/6 409/2/6
f 406/2/6 396/2/6 410/2/6
f 409/2/6 406/2/6 410/2/6
f 395/2/6 407/2/6 411/2/6
f 407/1/6 408/1/6 411/1/6
f 408/2/6 409/2/6 412/2/6
f 411/1/6 408/1/6 412/1/6
f 409/1/6 410/1/6 413/1/6
f 412/2/6 409/2/6 413/2/6
f 410/2/6 396/2/6 414/2/6
f 413/1/6 410/1/6 414/1/6
f 395/2/6 411/2/6 415/2/6
f 412/2/6 413/2/6 415/2/6
f 413/2/6 414/2/6 415/2/6
f 411/2/6 412/2/6 415/2/6
f 415/2/6 414/2/6 416/2/6
f 416/2/6 414/2/6 417/2/6
f 414/2/6 396/2/6 418/2/6
f 417/2/6 414/2/6 418/2/6
f 397/2/6 398/2/6 419/2/6
f 419/2/6 398/2/6 420/2/6
f 395/2/6 415/2/6 421/2/6
f 415/1/6 416/1/6 421/1/6
f 416/2/6 417/2/6 422/2/6
f 421/1/6 416/1/6 422/1/6
f 417/1/6 418/1/6 423/1/6
f 422/2/6 417/2/6 423/2/6
f 418/2/6 396/2/6 424/2/6
f 423/1/6 418/1/6 424/1/6
f 422/2/6 423/2/6 425/2/6
f 395/2/6 421/2/6 425/2/6
f 423/2/6 424/2/6 425/2/6
f 421/2/6 422/2/6 425/2/6
f 425/2/6 424/2/6 426/2/6
f 426/2/6 424/2/6 427/2/6
f 424/2/6 396/2/6 428/2/6
f 427/2/6 424/2/6 428/2/6
f 395/2/6 425/2/6 429/2/6
f 425/1/6 426/1/6 429/1/6
f 426/2/6 427/2/6 430/2/6
f 429/1/6 426/1/6 430/1/6
f 427/1/6 428/1/6 431/1/6
f 430/2/6 427/2/6 431/2/6
f 428/2/6 396/2/6 432/2/6
f 431/1/6 428/1/6 432/1/6
f 393/2/6 394/2/6 433/2/6
f 433/2/6 394/2/6 434/2/6
f 395/2/6 429/2/6 435/2/6
f 430/2/6 431/2/6 435/2/6
f 429/2/6 430/2/6 435/2/6
f 431/2/6 432/2/6 435/2/6
f 432/2/6 396/2/6 436/2/6
f 435/2/6 432/2/6 436/2/6
f 420/2/6 398/2/6 437/2/6
f 437/2/6 398/2/6 438/2/6
f 439/2/6 440/2/6 443/2/6
f 443/2/6 440/2/6 444/2/6
f 441/2/6 442/2/6 445/2/6
f 445/2/6 442/2/6 446/2/6
f 447/2/6 448/2/6 451/2/6
f 451/2/6 448/2/6 452/2/6
f 449/2/6 450/2/6 453/2/6
f 453/2/6 450/2/6 454/2/6
f 455/2/6 456/2/6 459/2/6
f 459/2/6 456/2/6 460/2/6
f 457/2/6 458/2/6 461/2/6
f 461/2/6 458/2/6 462/2/6
f 465/2/6 466/2/6 467/2/6
f 463/2/6 464/2/6 468/2/6
f 468/2/6 464/2/6 469/2/6
f 465/2/6 467/2/6 470/2/6
f 470/2/6 467/2/6 471/2/6
f 472/2/6 473/2/6 476/2/6
f 476/2/6 473/2/6 477/2/6
f 474/2/6 475/2/6 478/2/6
f 478/2/6 475/2/6 479/2/6
f 480/2/6 481/2/6 484/2/6
f 484/2/6 481/2/6 485/2/6
f 482/2/6 483/2/6 486/2/6
f 486/2/6 483/2/6 487/2/6
f 488/2/6 489/2/6 492/2/6
f 492/2/6 489/2/6 493/2/6
f 490/2/6 491/2/6 494/2/6
f 494/2/6 491/2/6 495/2/6
f 496/2/6 497/2/6 500/2/6
f 500/2/6 497/2/6 501/2/6
f 498/2/6 499/2/6 502/2/6
f 502/2/6 499/2/6 503/2/6
f 506/1/6 507/1/6 508/1/6
f 508/1/6 507/1/6 509/1/6
f 504/2/6 505/2/6 510/2/6
f 510/2/6 505/2/6 511/2/6
f 508/2/6 509/2/6 512/2/6
f 512/2/6 509/2/6 513/2/6
f 514/2/6 515/2/6 518/2/6
f 518/2/6 515/2/6 519/2/6
f 516/2/6 517/2/6 520/2/6
f 520/2/6 517/2/6 521/2/6
f 522/2/6 523/2/6 526/2/6
f 526/2/6 523/2/6 527/2/6
f 524/2/6 525/2/6 528/2/6
f 528/2/6 525/2/6 529/2/6
f 530/2/6 531/2/6 535/2/6
f 535/2/6 531/2/6 536/2/6
f 533/1/6 534/1/6 537/1/6
f 532/2/6 533/2/6 537/2/6
f 537/1/6 534/1/6 538/1/6
f 535/1/6 536/1/6 539/1/6
f 539/1/6 536/1/6 540/1/6
f 532/2/6 537/2/6 541/2/6
f 537/2/6 538/2/6 541/2/6
f 541/2/6 538/2/6 542/2/6
f 543/2/6 544/2/6 547/2/6
f 547/2/6 544/2/6 548/2/6
f 545/2/6 546/2/6 549/2/6
f 549/2/6 546/2/6 550/2/6
f 551/2/6 552/2/6 555/2/6
f 555/2/6 552/2/6 556/2/6
f 553/2/6 554/2/6 557/2/6
f 557/2/6 554/2/6 558/2/6
f 559/2/6 560/2/6 563/2/6
f 563/2/6 560/2/6 564/2/6
f 561/3/6 562/3/6 565/3/6
f 565/3/6 562/3/6 566/3/6
f 563/3/6 564/3/6 567/3/6
f 567/3/6 564/3/6 568/3/6
f 567/2/6 568/2/6 569/2/6
f 569/2/6 568/2/6 570/2/6
f 565/2/6 566/2/6 571/2/6
f 571/2/6 566/2/6 572/2/6
