# MagicaVoxel @ Ephtracy

# group
o 

# material
mtllib suelo 3.mtl
usemtl palette

# normals
vn -1 0 0
vn 1 0 0
vn 0 0 1
vn 0 0 -1
vn 0 -1 0
vn 0 1 0

# texcoords
vt 0.845703 0.5
vt 0.849609 0.5
vt 0.853516 0.5

# verts
v 0 2 0
v 0 2 -4
v 0 2.3 0
v 0 2.3 -4
v 4 2 0
v 4 2 -4
v 4 2.3 0
v 4 2.3 -4
v 0 2 0
v 0 2.3 0
v 4 2 0
v 4 2.3 0
v 0 2 -4
v 0 2.3 -4
v 4 2 -4
v 4 2.3 -4
v 0 2 0
v 4 2 0
v 0 2 -4
v 4 2 -4
v 0 2.3 0
v 4 2.3 0
v 2.8 2.3 -0.1
v 3 2.3 -0.1
v 0.4 2.3 -0.2
v 1.7 2.3 -0.2
v 2.8 2.3 -0.2
v 3 2.3 -0.2
v 1.7 2.3 -0.4
v 3.3 2.3 -0.4
v 1.1 2.3 -0.6
v 2.3 2.3 -0.6
v 1.4 2.3 -0.8
v 1.6 2.3 -0.8
v 3.6 2.3 -0.8
v 3.8 2.3 -0.8
v 1.4 2.3 -0.9
v 1.6 2.3 -0.9
v 3.6 2.3 -0.9
v 3.8 2.3 -0.9
v 0.4 2.3 -1
v 1.1 2.3 -1
v 3.1 2.3 -1.1
v 3.3 2.3 -1.1
v 1.4 2.3 -1.2
v 1.9 2.3 -1.2
v 0.4 2.3 -1.3
v 1.1 2.3 -1.3
v 1.4 2.3 -1.3
v 1.9 2.3 -1.3
v 1.1 2.3 -1.5
v 2.3 2.3 -1.5
v 3.1 2.3 -1.7
v 3.8 2.3 -1.7
v 3.6 2.3 -2.7
v 3.8 2.3 -2.7
v 2.5 2.3 -2.8
v 3 2.3 -2.8
v 3.2 2.3 -2.8
v 3.6 2.3 -2.8
v 3 2.3 -2.9
v 3.2 2.3 -2.9
v 3.4 2.3 -2.9
v 3.7 2.3 -2.9
v 0.4 2.3 -3
v 0.7 2.3 -3
v 3.4 2.3 -3
v 3.7 2.3 -3
v 0.7 2.3 -3.3
v 1.5 2.3 -3.3
v 2.5 2.3 -3.5
v 3.6 2.3 -3.5
v 0.6 2.3 -3.6
v 1 2.3 -3.6
v 1.5 2.3 -3.6
v 2.2 2.3 -3.6
v 0.6 2.3 -3.7
v 1 2.3 -3.7
v 2.2 2.3 -3.7
v 3.6 2.3 -3.7
v 0 2.3 -4
v 4 2.3 -4

# faces
f 3/1/1 2/1/1 1/1/1
f 4/1/1 2/1/1 3/1/1
f 5/1/2 6/1/2 7/1/2
f 7/1/2 6/1/2 8/1/2
f 11/1/3 10/1/3 9/1/3
f 12/1/3 10/1/3 11/1/3
f 13/1/4 14/1/4 15/1/4
f 15/1/4 14/1/4 16/1/4
f 19/1/5 18/1/5 17/1/5
f 20/1/5 18/1/5 19/1/5
f 21/1/6 22/1/6 23/1/6
f 23/1/6 22/1/6 24/1/6
f 21/1/6 23/1/6 25/1/6
f 25/1/6 23/1/6 26/1/6
f 23/2/6 24/2/6 27/2/6
f 26/1/6 23/1/6 27/1/6
f 24/1/6 22/1/6 28/1/6
f 27/2/6 24/2/6 28/2/6
f 26/1/6 27/1/6 29/1/6
f 25/3/6 26/3/6 29/3/6
f 27/1/6 28/1/6 29/1/6
f 28/1/6 22/1/6 30/1/6
f 29/1/6 28/1/6 30/1/6
f 25/3/6 29/3/6 31/3/6
f 29/3/6 30/3/6 31/3/6
f 31/3/6 30/3/6 32/3/6
f 31/1/6 32/1/6 33/1/6
f 33/1/6 32/1/6 34/1/6
f 30/1/6 22/1/6 35/1/6
f 35/1/6 22/1/6 36/1/6
f 31/1/6 33/1/6 37/1/6
f 33/2/6 34/2/6 37/2/6
f 34/1/6 32/1/6 38/1/6
f 37/2/6 34/2/6 38/2/6
f 35/2/6 36/2/6 39/2/6
f 30/1/6 35/1/6 39/1/6
f 36/1/6 22/1/6 40/1/6
f 39/2/6 36/2/6 40/2/6
f 21/1/6 25/1/6 41/1/6
f 25/3/6 31/3/6 41/3/6
f 31/1/6 37/1/6 42/1/6
f 41/3/6 31/3/6 42/3/6
f 37/1/6 38/1/6 42/1/6
f 32/3/6 30/3/6 43/3/6
f 39/1/6 40/1/6 44/1/6
f 43/3/6 30/3/6 44/3/6
f 30/1/6 39/1/6 44/1/6
f 42/1/6 38/1/6 45/1/6
f 41/1/6 42/1/6 45/1/6
f 38/1/6 32/1/6 46/1/6
f 45/1/6 38/1/6 46/1/6
f 21/1/6 41/1/6 47/1/6
f 41/1/6 45/1/6 47/1/6
f 47/1/6 45/1/6 48/1/6
f 45/2/6 46/2/6 49/2/6
f 48/1/6 45/1/6 49/1/6
f 46/1/6 32/1/6 50/1/6
f 49/2/6 46/2/6 50/2/6
f 48/1/6 49/1/6 51/1/6
f 47/3/6 48/3/6 51/3/6
f 49/1/6 50/1/6 51/1/6
f 50/1/6 32/1/6 52/1/6
f 51/1/6 50/1/6 52/1/6
f 32/3/6 43/3/6 52/3/6
f 43/1/6 44/1/6 53/1/6
f 52/3/6 43/3/6 53/3/6
f 51/3/6 52/3/6 53/3/6
f 40/1/6 22/1/6 54/1/6
f 53/1/6 44/1/6 54/1/6
f 44/1/6 40/1/6 54/1/6
f 53/3/6 54/3/6 55/3/6
f 54/1/6 22/1/6 56/1/6
f 55/3/6 54/3/6 56/3/6
f 51/3/6 53/3/6 57/3/6
f 53/3/6 55/3/6 57/3/6
f 57/3/6 55/3/6 58/3/6
f 58/3/6 55/3/6 59/3/6
f 55/1/6 56/1/6 60/1/6
f 59/3/6 55/3/6 60/3/6
f 58/2/6 59/2/6 61/2/6
f 57/1/6 58/1/6 61/1/6
f 59/1/6 60/1/6 62/1/6
f 61/2/6 59/2/6 62/2/6
f 62/1/6 60/1/6 63/1/6
f 60/1/6 56/1/6 64/1/6
f 63/1/6 60/1/6 64/1/6
f 47/3/6 51/3/6 65/3/6
f 21/1/6 47/1/6 65/1/6
f 51/3/6 57/3/6 65/3/6
f 65/3/6 57/3/6 66/3/6
f 63/2/6 64/2/6 67/2/6
f 62/1/6 63/1/6 67/1/6
f 61/1/6 62/1/6 67/1/6
f 64/1/6 56/1/6 68/1/6
f 67/2/6 64/2/6 68/2/6
f 66/3/6 57/3/6 69/3/6
f 65/1/6 66/1/6 69/1/6
f 69/3/6 57/3/6 70/3/6
f 61/1/6 67/1/6 71/1/6
f 70/3/6 57/3/6 71/3/6
f 67/1/6 68/1/6 71/1/6
f 57/1/6 61/1/6 71/1/6
f 71/1/6 68/1/6 72/1/6
f 69/1/6 70/1/6 73/1/6
f 65/1/6 69/1/6 73/1/6
f 73/1/6 70/1/6 74/1/6
f 71/3/6 72/3/6 75/3/6
f 74/1/6 70/1/6 75/1/6
f 70/3/6 71/3/6 75/3/6
f 75/3/6 72/3/6 76/3/6
f 73/2/6 74/2/6 77/2/6
f 65/1/6 73/1/6 77/1/6
f 75/1/6 76/1/6 78/1/6
f 77/2/6 74/2/6 78/2/6
f 74/1/6 75/1/6 78/1/6
f 76/3/6 72/3/6 79/3/6
f 78/1/6 76/1/6 79/1/6
f 72/1/6 68/1/6 80/1/6
f 79/3/6 72/3/6 80/3/6
f 78/1/6 79/1/6 81/1/6
f 77/1/6 78/1/6 81/1/6
f 79/1/6 80/1/6 81/1/6
f 65/1/6 77/1/6 81/1/6
f 21/1/6 65/1/6 81/1/6
f 80/1/6 68/1/6 82/1/6
f 81/1/6 80/1/6 82/1/6
f 56/1/6 22/1/6 82/1/6
f 68/1/6 56/1/6 82/1/6
